<svg xmlns="http://www.w3.org/2000/svg" xmlns:xlink="http://www.w3.org/1999/xlink" width="500" zoomAndPan="magnify" viewBox="0 0 375 374.999991" height="500" preserveAspectRatio="xMidYMid meet" version="1.0"><defs><clipPath id="9ca65e3630"><path d="M 122.621094 137 L 252.371094 137 L 252.371094 238 L 122.621094 238 Z M 122.621094 137 " clip-rule="nonzero"/></clipPath></defs><g clip-path="url(#9ca65e3630)"><path fill="#000000" d="M 232.53125 145.476562 C 224.132812 141.546875 215.152344 138.691406 205.765625 137.066406 C 204.609375 139.152344 203.261719 141.953125 202.335938 144.183594 C 192.355469 142.683594 182.464844 142.683594 172.667969 144.183594 C 171.738281 141.953125 170.363281 139.152344 169.199219 137.066406 C 159.800781 138.691406 150.808594 141.558594 142.410156 145.5 C 125.46875 171.097656 120.875 196.0625 123.171875 220.671875 C 134.410156 229.0625 145.296875 234.160156 156.003906 237.496094 C 158.644531 233.855469 161.003906 229.992188 163.035156 225.914062 C 159.167969 224.445312 155.460938 222.632812 151.960938 220.527344 C 152.890625 219.839844 153.796875 219.117188 154.675781 218.378906 C 176.027344 228.363281 199.222656 228.363281 220.316406 218.378906 C 221.203125 219.117188 222.113281 219.839844 223.03125 220.527344 C 219.519531 222.640625 215.804688 224.457031 211.9375 225.925781 C 213.96875 229.992188 216.316406 233.867188 218.96875 237.503906 C 229.683594 234.171875 240.585938 229.074219 251.820312 220.671875 C 254.515625 192.144531 247.21875 167.410156 232.53125 145.476562 Z M 165.941406 205.539062 C 159.535156 205.539062 154.277344 199.554688 154.277344 192.269531 C 154.277344 184.980469 159.421875 178.988281 165.941406 178.988281 C 172.464844 178.988281 177.71875 184.972656 177.609375 192.269531 C 177.617188 199.554688 172.464844 205.539062 165.941406 205.539062 Z M 209.050781 205.539062 C 202.640625 205.539062 197.386719 199.554688 197.386719 192.269531 C 197.386719 184.980469 202.527344 178.988281 209.050781 178.988281 C 215.570312 178.988281 220.828125 184.972656 220.714844 192.269531 C 220.714844 199.554688 215.570312 205.539062 209.050781 205.539062 Z M 209.050781 205.539062 " fill-opacity="1" fill-rule="nonzero"/></g></svg>