<svg xmlns="http://www.w3.org/2000/svg" xmlns:xlink="http://www.w3.org/1999/xlink" width="500" zoomAndPan="magnify" viewBox="0 0 375 374.999991" height="500" preserveAspectRatio="xMidYMid meet" version="1.0"><path fill="#000000" d="M 208.335938 135.9375 L 166.660156 135.9375 C 165.652344 135.9375 164.648438 135.988281 163.648438 136.085938 C 162.648438 136.1875 161.652344 136.335938 160.667969 136.53125 C 159.679688 136.726562 158.707031 136.972656 157.742188 137.265625 C 156.78125 137.558594 155.835938 137.898438 154.90625 138.28125 C 153.976562 138.667969 153.070312 139.097656 152.183594 139.570312 C 151.292969 140.046875 150.433594 140.5625 149.597656 141.121094 C 148.761719 141.679688 147.953125 142.28125 147.175781 142.917969 C 146.398438 143.554688 145.652344 144.230469 144.941406 144.941406 C 144.230469 145.652344 143.554688 146.398438 142.917969 147.175781 C 142.28125 147.953125 141.679688 148.761719 141.121094 149.597656 C 140.5625 150.433594 140.046875 151.292969 139.570312 152.183594 C 139.097656 153.070312 138.667969 153.976562 138.28125 154.90625 C 137.898438 155.835938 137.558594 156.78125 137.265625 157.742188 C 136.972656 158.707031 136.726562 159.679688 136.53125 160.667969 C 136.335938 161.652344 136.1875 162.648438 136.085938 163.648438 C 135.988281 164.648438 135.9375 165.652344 135.9375 166.660156 L 135.9375 208.335938 C 135.9375 209.34375 135.988281 210.34375 136.085938 211.347656 C 136.1875 212.347656 136.335938 213.34375 136.53125 214.328125 C 136.726562 215.316406 136.972656 216.289062 137.265625 217.253906 C 137.558594 218.214844 137.894531 219.160156 138.28125 220.089844 C 138.667969 221.019531 139.097656 221.929688 139.570312 222.816406 C 140.042969 223.703125 140.5625 224.5625 141.121094 225.402344 C 141.679688 226.238281 142.277344 227.042969 142.917969 227.820312 C 143.554688 228.601562 144.230469 229.34375 144.941406 230.054688 C 145.652344 230.765625 146.398438 231.441406 147.175781 232.082031 C 147.953125 232.71875 148.757812 233.316406 149.59375 233.875 C 150.433594 234.4375 151.292969 234.953125 152.179688 235.425781 C 153.066406 235.902344 153.976562 236.332031 154.90625 236.71875 C 155.835938 237.101562 156.78125 237.441406 157.742188 237.734375 C 158.707031 238.027344 159.679688 238.269531 160.667969 238.46875 C 161.652344 238.664062 162.648438 238.8125 163.648438 238.914062 C 164.648438 239.011719 165.652344 239.0625 166.660156 239.0625 L 208.335938 239.0625 C 209.34375 239.0625 210.34375 239.011719 211.347656 238.910156 C 212.347656 238.8125 213.339844 238.664062 214.328125 238.46875 C 215.316406 238.269531 216.289062 238.027344 217.25 237.734375 C 218.214844 237.441406 219.160156 237.101562 220.089844 236.714844 C 221.019531 236.332031 221.925781 235.902344 222.8125 235.425781 C 223.699219 234.953125 224.5625 234.433594 225.398438 233.875 C 226.234375 233.316406 227.042969 232.71875 227.820312 232.078125 C 228.597656 231.441406 229.339844 230.765625 230.054688 230.054688 C 230.765625 229.34375 231.4375 228.597656 232.078125 227.820312 C 232.714844 227.042969 233.3125 226.234375 233.875 225.398438 C 234.433594 224.5625 234.949219 223.703125 235.421875 222.8125 C 235.898438 221.925781 236.328125 221.019531 236.714844 220.089844 C 237.097656 219.160156 237.4375 218.214844 237.730469 217.25 C 238.023438 216.289062 238.265625 215.316406 238.464844 214.328125 C 238.660156 213.339844 238.808594 212.347656 238.90625 211.347656 C 239.007812 210.34375 239.058594 209.34375 239.058594 208.335938 L 239.058594 166.660156 C 239.058594 165.652344 239.007812 164.648438 238.910156 163.648438 C 238.808594 162.648438 238.660156 161.652344 238.464844 160.667969 C 238.269531 159.679688 238.023438 158.707031 237.730469 157.742188 C 237.441406 156.78125 237.101562 155.835938 236.714844 154.90625 C 236.332031 153.976562 235.902344 153.066406 235.425781 152.179688 C 234.953125 151.292969 234.433594 150.429688 233.875 149.59375 C 233.316406 148.757812 232.71875 147.949219 232.078125 147.171875 C 231.441406 146.394531 230.765625 145.652344 230.054688 144.941406 C 229.34375 144.226562 228.597656 143.554688 227.820312 142.914062 C 227.042969 142.277344 226.238281 141.679688 225.402344 141.121094 C 224.5625 140.558594 223.703125 140.042969 222.816406 139.570312 C 221.929688 139.09375 221.019531 138.664062 220.089844 138.28125 C 219.160156 137.894531 218.214844 137.554688 217.253906 137.261719 C 216.289062 136.972656 215.316406 136.726562 214.328125 136.53125 C 213.34375 136.332031 212.347656 136.1875 211.347656 136.085938 C 210.34375 135.988281 209.34375 135.9375 208.335938 135.9375 Z M 228.6875 208.335938 C 228.6875 209.003906 228.65625 209.667969 228.589844 210.332031 C 228.523438 210.992188 228.425781 211.652344 228.296875 212.304688 C 228.167969 212.960938 228.003906 213.605469 227.8125 214.242188 C 227.617188 214.882812 227.394531 215.507812 227.136719 216.125 C 226.882812 216.738281 226.597656 217.339844 226.285156 217.929688 C 225.96875 218.515625 225.628906 219.089844 225.257812 219.640625 C 224.886719 220.195312 224.492188 220.730469 224.066406 221.246094 C 223.644531 221.761719 223.199219 222.253906 222.726562 222.726562 C 222.253906 223.199219 221.761719 223.644531 221.246094 224.066406 C 220.730469 224.492188 220.195312 224.886719 219.640625 225.257812 C 219.089844 225.628906 218.515625 225.96875 217.929688 226.285156 C 217.339844 226.597656 216.738281 226.882812 216.125 227.136719 C 215.507812 227.394531 214.882812 227.617188 214.242188 227.8125 C 213.605469 228.003906 212.960938 228.167969 212.304688 228.296875 C 211.652344 228.425781 210.992188 228.523438 210.332031 228.589844 C 209.667969 228.65625 209.003906 228.6875 208.335938 228.6875 L 166.660156 228.6875 C 165.992188 228.6875 165.328125 228.65625 164.664062 228.589844 C 164 228.527344 163.34375 228.429688 162.6875 228.296875 C 162.035156 228.167969 161.390625 228.007812 160.75 227.8125 C 160.113281 227.617188 159.488281 227.394531 158.871094 227.140625 C 158.253906 226.882812 157.652344 226.601562 157.066406 226.285156 C 156.476562 225.972656 155.90625 225.628906 155.351562 225.257812 C 154.796875 224.886719 154.265625 224.492188 153.75 224.070312 C 153.234375 223.644531 152.742188 223.199219 152.269531 222.726562 C 151.796875 222.257812 151.351562 221.761719 150.929688 221.246094 C 150.503906 220.730469 150.109375 220.199219 149.738281 219.644531 C 149.367188 219.089844 149.027344 218.519531 148.710938 217.929688 C 148.398438 217.34375 148.113281 216.738281 147.859375 216.125 C 147.605469 215.507812 147.378906 214.882812 147.1875 214.242188 C 146.992188 213.605469 146.832031 212.960938 146.699219 212.304688 C 146.570312 211.652344 146.472656 210.992188 146.410156 210.332031 C 146.34375 209.667969 146.3125 209.003906 146.3125 208.335938 L 146.3125 166.660156 C 146.3125 165.992188 146.34375 165.328125 146.410156 164.664062 C 146.472656 164 146.570312 163.34375 146.699219 162.6875 C 146.832031 162.035156 146.992188 161.390625 147.1875 160.753906 C 147.378906 160.113281 147.605469 159.488281 147.859375 158.871094 C 148.113281 158.253906 148.398438 157.652344 148.710938 157.066406 C 149.027344 156.476562 149.367188 155.90625 149.738281 155.351562 C 150.109375 154.800781 150.503906 154.265625 150.929688 153.75 C 151.351562 153.234375 151.796875 152.742188 152.269531 152.269531 C 152.742188 151.796875 153.234375 151.351562 153.75 150.929688 C 154.265625 150.503906 154.800781 150.109375 155.351562 149.738281 C 155.90625 149.367188 156.476562 149.027344 157.066406 148.710938 C 157.652344 148.398438 158.253906 148.113281 158.871094 147.859375 C 159.488281 147.605469 160.113281 147.378906 160.753906 147.1875 C 161.390625 146.992188 162.035156 146.832031 162.6875 146.699219 C 163.34375 146.570312 164 146.472656 164.664062 146.410156 C 165.328125 146.34375 165.992188 146.3125 166.660156 146.3125 L 208.335938 146.3125 C 209.003906 146.3125 209.667969 146.34375 210.332031 146.410156 C 210.992188 146.476562 211.652344 146.574219 212.304688 146.703125 C 212.957031 146.832031 213.605469 146.996094 214.242188 147.1875 C 214.878906 147.382812 215.507812 147.605469 216.121094 147.859375 C 216.738281 148.117188 217.339844 148.402344 217.925781 148.714844 C 218.515625 149.027344 219.085938 149.371094 219.640625 149.742188 C 220.195312 150.113281 220.726562 150.507812 221.242188 150.929688 C 221.757812 151.355469 222.25 151.800781 222.722656 152.273438 C 223.195312 152.742188 223.640625 153.238281 224.0625 153.75 C 224.488281 154.265625 224.882812 154.800781 225.253906 155.355469 C 225.625 155.910156 225.964844 156.480469 226.28125 157.066406 C 226.59375 157.65625 226.878906 158.257812 227.132812 158.875 C 227.390625 159.488281 227.613281 160.117188 227.808594 160.753906 C 228 161.390625 228.164062 162.035156 228.292969 162.691406 C 228.421875 163.34375 228.519531 164 228.585938 164.664062 C 228.652344 165.328125 228.683594 165.992188 228.683594 166.660156 Z M 228.6875 208.335938 " fill-opacity="1" fill-rule="nonzero"/><path fill="#000000" d="M 187.5 160.835938 C 172.789062 160.835938 160.835938 172.796875 160.835938 187.5 C 160.835938 202.203125 172.796875 214.164062 187.5 214.164062 C 202.203125 214.164062 214.164062 202.203125 214.164062 187.5 C 214.164062 172.796875 202.210938 160.835938 187.5 160.835938 Z M 187.5 203.789062 C 186.964844 203.789062 186.433594 203.761719 185.902344 203.710938 C 185.371094 203.660156 184.84375 203.582031 184.320312 203.476562 C 183.796875 203.375 183.28125 203.246094 182.769531 203.089844 C 182.257812 202.9375 181.757812 202.757812 181.265625 202.550781 C 180.769531 202.347656 180.289062 202.121094 179.816406 201.871094 C 179.347656 201.617188 178.890625 201.34375 178.445312 201.046875 C 178.003906 200.75 177.574219 200.433594 177.160156 200.097656 C 176.75 199.757812 176.355469 199.398438 175.976562 199.023438 C 175.597656 198.644531 175.242188 198.25 174.902344 197.839844 C 174.5625 197.425781 174.246094 196.996094 173.949219 196.554688 C 173.652344 196.109375 173.378906 195.652344 173.125 195.183594 C 172.875 194.710938 172.648438 194.230469 172.441406 193.738281 C 172.238281 193.246094 172.058594 192.742188 171.902344 192.230469 C 171.75 191.722656 171.617188 191.203125 171.515625 190.679688 C 171.410156 190.15625 171.332031 189.628906 171.28125 189.097656 C 171.226562 188.566406 171.199219 188.035156 171.199219 187.503906 C 171.199219 186.96875 171.226562 186.4375 171.277344 185.90625 C 171.332031 185.375 171.410156 184.847656 171.511719 184.324219 C 171.617188 183.800781 171.746094 183.28125 171.902344 182.773438 C 172.058594 182.261719 172.234375 181.761719 172.441406 181.265625 C 172.644531 180.773438 172.871094 180.292969 173.125 179.820312 C 173.375 179.351562 173.648438 178.894531 173.945312 178.449219 C 174.242188 178.007812 174.558594 177.578125 174.898438 177.164062 C 175.238281 176.753906 175.59375 176.359375 175.972656 175.980469 C 176.351562 175.601562 176.746094 175.246094 177.15625 174.90625 C 177.570312 174.570312 178 174.25 178.441406 173.953125 C 178.886719 173.660156 179.34375 173.382812 179.8125 173.132812 C 180.285156 172.882812 180.765625 172.652344 181.257812 172.449219 C 181.753906 172.246094 182.253906 172.066406 182.765625 171.910156 C 183.277344 171.757812 183.792969 171.628906 184.316406 171.523438 C 184.839844 171.417969 185.367188 171.339844 185.898438 171.289062 C 186.429688 171.238281 186.960938 171.210938 187.496094 171.210938 C 188.027344 171.210938 188.5625 171.238281 189.089844 171.289062 C 189.621094 171.34375 190.148438 171.421875 190.671875 171.523438 C 191.195312 171.628906 191.710938 171.757812 192.222656 171.914062 C 192.730469 172.070312 193.234375 172.246094 193.726562 172.453125 C 194.21875 172.65625 194.699219 172.882812 195.171875 173.136719 C 195.640625 173.386719 196.097656 173.660156 196.542969 173.957031 C 196.984375 174.253906 197.414062 174.570312 197.824219 174.910156 C 198.238281 175.25 198.632812 175.605469 199.007812 175.984375 C 199.386719 176.359375 199.742188 176.753906 200.082031 177.167969 C 200.421875 177.578125 200.738281 178.007812 201.035156 178.449219 C 201.332031 178.894531 201.605469 179.351562 201.855469 179.820312 C 202.105469 180.292969 202.335938 180.773438 202.539062 181.265625 C 202.742188 181.757812 202.921875 182.261719 203.078125 182.769531 C 203.230469 183.28125 203.363281 183.796875 203.464844 184.320312 C 203.570312 184.84375 203.648438 185.371094 203.699219 185.902344 C 203.753906 186.433594 203.777344 186.964844 203.777344 187.496094 C 203.777344 188.03125 203.753906 188.5625 203.699219 189.09375 C 203.648438 189.625 203.570312 190.152344 203.464844 190.675781 C 203.363281 191.199219 203.234375 191.714844 203.078125 192.226562 C 202.921875 192.734375 202.746094 193.238281 202.539062 193.730469 C 202.335938 194.222656 202.109375 194.703125 201.859375 195.175781 C 201.605469 195.644531 201.332031 196.101562 201.035156 196.546875 C 200.742188 196.988281 200.421875 197.417969 200.085938 197.828125 C 199.746094 198.242188 199.390625 198.636719 199.011719 199.011719 C 198.636719 199.390625 198.242188 199.75 197.828125 200.085938 C 197.417969 200.425781 196.988281 200.742188 196.546875 201.039062 C 196.101562 201.335938 195.644531 201.609375 195.175781 201.863281 C 194.703125 202.113281 194.222656 202.339844 193.730469 202.546875 C 193.238281 202.75 192.738281 202.929688 192.226562 203.085938 C 191.714844 203.238281 191.199219 203.371094 190.675781 203.472656 C 190.152344 203.578125 189.625 203.65625 189.097656 203.710938 C 188.566406 203.761719 188.035156 203.789062 187.5 203.789062 Z M 214.21875 154.644531 C 214.636719 154.644531 215.054688 154.6875 215.464844 154.769531 C 215.875 154.851562 216.273438 154.972656 216.664062 155.132812 C 217.050781 155.292969 217.417969 155.492188 217.765625 155.722656 C 218.113281 155.957031 218.4375 156.222656 218.734375 156.519531 C 219.03125 156.816406 219.296875 157.136719 219.527344 157.488281 C 219.761719 157.835938 219.957031 158.203125 220.117188 158.589844 C 220.277344 158.980469 220.398438 159.378906 220.480469 159.789062 C 220.5625 160.203125 220.601562 160.617188 220.601562 161.035156 C 220.601562 161.457031 220.5625 161.871094 220.480469 162.28125 C 220.398438 162.691406 220.277344 163.09375 220.117188 163.480469 C 219.957031 163.867188 219.757812 164.234375 219.527344 164.585938 C 219.292969 164.933594 219.027344 165.253906 218.730469 165.550781 C 218.433594 165.847656 218.113281 166.113281 217.765625 166.347656 C 217.414062 166.578125 217.046875 166.777344 216.660156 166.9375 C 216.273438 167.097656 215.871094 167.21875 215.460938 167.300781 C 215.050781 167.382812 214.636719 167.421875 214.214844 167.421875 C 213.796875 167.421875 213.382812 167.382812 212.96875 167.300781 C 212.558594 167.21875 212.160156 167.097656 211.769531 166.9375 C 211.382812 166.777344 211.015625 166.582031 210.667969 166.347656 C 210.316406 166.117188 209.996094 165.851562 209.699219 165.554688 C 209.402344 165.257812 209.136719 164.933594 208.902344 164.585938 C 208.671875 164.238281 208.472656 163.871094 208.3125 163.484375 C 208.152344 163.09375 208.03125 162.695312 207.949219 162.285156 C 207.867188 161.875 207.824219 161.457031 207.824219 161.039062 C 207.824219 157.515625 210.214844 154.644531 214.21875 154.644531 Z M 214.21875 154.644531 " fill-opacity="1" fill-rule="nonzero"/></svg>