<svg xmlns="http://www.w3.org/2000/svg" xmlns:xlink="http://www.w3.org/1999/xlink" width="500" zoomAndPan="magnify" viewBox="0 0 375 374.999991" height="500" preserveAspectRatio="xMidYMid meet" version="1.0"><path fill="#fefefe" d="M 243.191406 127.90625 L 243.546875 127.90625 C 245.382812 127.910156 247.148438 127.996094 248.949219 128.398438 L 249.28125 128.46875 C 251.460938 128.960938 253.59375 129.679688 255.5625 130.742188 C 255.800781 130.871094 256.039062 130.996094 256.28125 131.121094 C 257.960938 132.019531 259.503906 133.09375 260.945312 134.339844 L 261.21875 134.574219 C 262.324219 135.550781 263.378906 136.582031 264.292969 137.738281 C 264.539062 138.046875 264.796875 138.347656 265.054688 138.648438 C 267.519531 141.609375 269.5625 144.78125 271.300781 148.210938 C 271.472656 148.554688 271.648438 148.898438 271.824219 149.242188 C 273.90625 153.316406 275.65625 157.664062 275.652344 162.300781 L 275.652344 162.667969 C 275.652344 163.074219 275.65625 163.476562 275.65625 163.882812 L 275.65625 164.757812 C 275.65625 165.546875 275.660156 166.335938 275.660156 167.128906 C 275.660156 167.621094 275.660156 168.117188 275.660156 168.613281 C 275.660156 169.988281 275.664062 171.359375 275.664062 172.734375 L 275.664062 174.070312 C 275.664062 175.5 275.664062 176.929688 275.667969 178.355469 C 275.671875 179.828125 275.671875 181.300781 275.671875 182.773438 C 275.671875 183.597656 275.671875 184.421875 275.675781 185.246094 C 275.675781 185.949219 275.679688 186.652344 275.675781 187.355469 C 275.675781 187.710938 275.675781 188.070312 275.679688 188.425781 C 275.691406 191.738281 275.453125 194.765625 273.84375 197.699219 L 273.644531 198.066406 C 273.113281 199.019531 272.53125 199.9375 271.949219 200.863281 C 271.191406 202.070312 270.449219 203.292969 269.710938 204.515625 C 269.441406 204.964844 269.167969 205.410156 268.894531 205.859375 C 267.132812 208.75 265.757812 211.625 265.644531 215.074219 C 265.640625 215.441406 265.636719 215.8125 265.636719 216.179688 L 265.636719 216.601562 C 265.636719 216.902344 265.632812 217.203125 265.632812 217.503906 C 265.632812 217.980469 265.628906 218.457031 265.628906 218.933594 C 265.621094 220.289062 265.613281 221.644531 265.609375 223 C 265.609375 223.75 265.605469 224.5 265.601562 225.25 C 265.597656 225.644531 265.597656 226.039062 265.597656 226.433594 C 265.597656 226.878906 265.59375 227.320312 265.589844 227.761719 L 265.59375 228.152344 C 265.582031 229.085938 265.4375 229.921875 265.058594 230.78125 C 264.601562 231.53125 264.113281 232.085938 263.339844 232.515625 C 262.367188 232.984375 261.445312 233.171875 260.371094 233.164062 L 260.070312 233.164062 C 259.742188 233.164062 259.410156 233.164062 259.078125 233.164062 L 258.359375 233.164062 C 257.695312 233.167969 257.03125 233.167969 256.371094 233.164062 C 255.648438 233.164062 254.929688 233.167969 254.207031 233.167969 C 252.945312 233.167969 251.679688 233.167969 250.417969 233.167969 C 249.0625 233.167969 247.707031 233.167969 246.351562 233.167969 L 246.089844 233.167969 L 245.046875 233.171875 C 241.015625 233.171875 236.984375 233.175781 232.957031 233.171875 L 232.660156 233.171875 C 230.507812 233.171875 228.355469 233.171875 226.199219 233.175781 L 223.242188 233.175781 C 215.835938 233.175781 208.425781 233.175781 201.019531 233.175781 C 194.324219 233.179688 187.628906 233.179688 180.933594 233.183594 C 179.246094 233.183594 177.558594 233.183594 175.871094 233.183594 L 175.554688 233.183594 C 172.355469 233.1875 169.152344 233.1875 165.953125 233.1875 L 165.648438 233.1875 C 162.457031 233.1875 159.265625 233.1875 156.070312 233.1875 C 152.941406 233.1875 149.8125 233.1875 146.683594 233.191406 C 143.09375 233.191406 139.507812 233.191406 135.917969 233.191406 L 135.660156 233.191406 C 134.308594 233.191406 132.957031 233.191406 131.605469 233.191406 C 130.273438 233.195312 128.945312 233.195312 127.617188 233.191406 C 126.90625 233.191406 126.195312 233.191406 125.484375 233.191406 C 124.835938 233.195312 124.1875 233.195312 123.542969 233.191406 C 123.308594 233.191406 123.078125 233.191406 122.84375 233.191406 C 120.988281 233.203125 119.386719 232.996094 117.734375 232.089844 C 117.289062 231.847656 116.84375 231.609375 116.394531 231.375 C 114.894531 230.585938 113.398438 229.78125 111.941406 228.914062 C 111.667969 228.75 111.394531 228.589844 111.121094 228.429688 C 108.738281 227.027344 106.175781 225.480469 104.765625 223.003906 C 104.324219 222.085938 104.046875 221.128906 104.046875 220.109375 L 104.046875 218.726562 C 104.042969 218.273438 104.042969 217.820312 104.042969 217.367188 C 104.042969 216.878906 104.042969 216.390625 104.042969 215.902344 C 104.039062 214.832031 104.039062 213.765625 104.039062 212.695312 C 104.039062 212.027344 104.039062 211.359375 104.039062 210.691406 C 104.035156 208.839844 104.035156 206.988281 104.035156 205.136719 L 104.035156 203.332031 C 104.035156 201.398438 104.03125 199.46875 104.03125 197.539062 C 104.027344 195.550781 104.027344 193.566406 104.027344 191.582031 C 104.027344 190.46875 104.023438 189.355469 104.023438 188.242188 C 104.019531 187.292969 104.019531 186.34375 104.023438 185.394531 C 104.023438 184.910156 104.023438 184.425781 104.019531 183.945312 C 104.011719 180.578125 104.136719 177.191406 105.746094 174.148438 C 106.8125 172.300781 108.21875 170.859375 110.050781 169.765625 C 113.058594 168.109375 116.292969 167.929688 119.652344 167.9375 C 120.082031 167.9375 120.515625 167.9375 120.945312 167.9375 C 121.671875 167.9375 122.394531 167.9375 123.117188 167.9375 C 123.949219 167.941406 124.777344 167.9375 125.605469 167.9375 C 126.328125 167.9375 127.046875 167.9375 127.769531 167.9375 C 128.195312 167.9375 128.621094 167.9375 129.046875 167.9375 C 131.554688 167.929688 134.007812 168.058594 136.457031 168.632812 L 136.839844 168.722656 C 140.105469 169.492188 143.261719 170.882812 145.777344 173.140625 C 146.480469 173.804688 147.15625 174.496094 147.835938 175.183594 C 148.035156 175.378906 148.234375 175.578125 148.429688 175.777344 C 148.949219 176.296875 149.464844 176.816406 149.984375 177.335938 C 150.8125 178.167969 151.640625 179.003906 152.472656 179.835938 C 152.761719 180.125 153.046875 180.414062 153.335938 180.707031 L 153.867188 181.242188 L 154.109375 181.484375 C 154.53125 181.90625 154.949219 182.3125 155.421875 182.671875 C 155.910156 182.675781 156.308594 182.40625 156.734375 182.183594 C 158.640625 181.203125 160.632812 181.175781 162.734375 181.144531 L 163.4375 181.132812 C 165.4375 181.097656 167.4375 181.078125 169.441406 181.101562 L 169.832031 181.105469 C 173.515625 181.160156 177.121094 181.847656 180.316406 183.738281 C 180.996094 184.152344 181.621094 184.621094 182.222656 185.140625 L 182.414062 184.898438 C 183.695312 183.316406 185.023438 182.199219 186.933594 181.4375 C 188.429688 180.917969 190.09375 180.84375 191.65625 181.066406 C 193.421875 181.414062 194.886719 182.128906 196.242188 183.308594 L 196.425781 183.46875 C 196.800781 183.796875 197.191406 184.105469 197.585938 184.410156 C 198.164062 184.859375 198.726562 185.324219 199.28125 185.796875 C 199.714844 186.167969 200.15625 186.523438 200.609375 186.871094 C 201.222656 187.347656 201.816406 187.84375 202.40625 188.355469 C 202.789062 188.6875 203.179688 189.011719 203.578125 189.332031 C 204.25 189.875 204.871094 190.464844 205.496094 191.054688 C 205.789062 191.332031 206.085938 191.597656 206.390625 191.859375 C 207.488281 192.816406 208.507812 193.90625 209.015625 195.292969 C 209.480469 196.777344 209.523438 198.285156 209.527344 199.824219 C 209.527344 200.035156 209.53125 200.242188 209.53125 200.449219 C 209.539062 200.992188 209.539062 201.53125 209.542969 202.070312 C 209.546875 202.941406 209.554688 203.8125 209.558594 204.683594 C 209.5625 204.988281 209.5625 205.289062 209.566406 205.59375 L 209.566406 206.148438 L 209.570312 206.402344 C 209.566406 206.832031 209.566406 206.832031 209.699219 207.230469 C 209.914062 207.207031 209.914062 207.207031 210.148438 207.117188 C 210.789062 206.269531 211.070312 205.03125 211.421875 204.035156 L 211.628906 203.457031 C 211.773438 203.050781 211.914062 202.644531 212.058594 202.242188 C 212.378906 201.339844 212.699219 200.441406 213.019531 199.542969 L 213.339844 198.648438 C 213.664062 197.738281 213.988281 196.828125 214.320312 195.921875 L 214.40625 195.679688 C 214.523438 195.359375 214.636719 195.039062 214.753906 194.71875 C 215.105469 193.75 215.453125 192.777344 215.789062 191.804688 C 215.96875 191.289062 216.144531 190.777344 216.324219 190.265625 C 216.410156 190.015625 216.496094 189.765625 216.582031 189.515625 C 217.363281 187.21875 218.207031 185.199219 219.980469 183.492188 C 221.328125 182.324219 223.09375 181.535156 224.820312 181.164062 C 226.773438 180.824219 228.707031 180.902344 230.585938 181.558594 C 232.03125 182.089844 233.238281 182.886719 234.496094 183.761719 C 235.683594 184.597656 235.683594 184.597656 237.058594 185.027344 L 237.285156 184.914062 C 237.253906 184.503906 237.226562 184.207031 236.992188 183.863281 C 236.667969 183.507812 236.316406 183.222656 235.933594 182.933594 L 235.6875 182.746094 C 234.722656 182.023438 233.714844 181.367188 232.710938 180.703125 C 231.753906 180.070312 230.8125 179.421875 229.882812 178.746094 L 229.621094 178.558594 C 226.871094 176.558594 224.136719 174.496094 222.035156 171.792969 L 221.773438 171.476562 C 219.023438 168.042969 217.351562 163.976562 216.539062 159.683594 L 216.460938 159.269531 C 216.203125 157.84375 216.179688 156.414062 216.179688 154.96875 L 216.179688 154.6875 C 216.195312 149.765625 217.554688 145.21875 220.015625 140.957031 C 220.398438 140.335938 220.8125 139.746094 221.25 139.160156 L 221.457031 138.878906 C 221.644531 138.632812 221.835938 138.390625 222.035156 138.152344 L 222.277344 137.847656 C 223.777344 136.011719 225.46875 134.351562 227.417969 132.996094 L 227.664062 132.820312 C 231.132812 130.40625 234.90625 128.867188 239.078125 128.171875 L 239.421875 128.109375 C 240.675781 127.898438 241.925781 127.902344 243.191406 127.90625 " fill-opacity="1" fill-rule="nonzero"/><path fill="#000000" d="M 247.601562 133.667969 L 247.875 133.726562 C 251.855469 134.59375 255.230469 136.410156 258.269531 139.105469 C 258.453125 139.273438 258.632812 139.441406 258.816406 139.609375 L 259.066406 139.84375 C 259.8125 140.5625 260.4375 141.363281 261.058594 142.191406 L 261.273438 142.472656 C 263.363281 145.359375 264.730469 148.683594 265.128906 152.230469 C 265.242188 153.511719 265.226562 154.796875 265.226562 156.082031 L 265.226562 156.890625 C 265.230469 157.621094 265.230469 158.347656 265.230469 159.078125 C 265.230469 159.53125 265.230469 159.988281 265.230469 160.445312 C 265.234375 161.707031 265.234375 162.972656 265.234375 164.234375 L 265.234375 165.460938 C 265.234375 166.78125 265.238281 168.097656 265.238281 169.414062 C 265.242188 170.769531 265.242188 172.128906 265.242188 173.484375 C 265.242188 174.242188 265.246094 175.003906 265.246094 175.761719 C 265.25 176.476562 265.25 177.191406 265.246094 177.90625 C 265.246094 178.167969 265.25 178.429688 265.25 178.691406 C 265.25 179.050781 265.25 179.40625 265.25 179.765625 L 265.25 180.078125 C 265.25 180.535156 265.21875 180.847656 265.050781 181.277344 L 264.871094 181.550781 C 264.550781 181.710938 264.28125 181.726562 263.925781 181.722656 C 263.453125 181.625 263.160156 181.339844 262.804688 181.027344 L 262.515625 180.765625 C 262.324219 180.609375 262.132812 180.453125 261.941406 180.296875 L 261.628906 180.042969 C 261.152344 179.648438 260.671875 179.257812 260.191406 178.871094 C 259.800781 178.554688 259.414062 178.238281 259.027344 177.921875 C 258.582031 177.558594 258.140625 177.199219 257.695312 176.839844 L 257.488281 176.675781 C 256.570312 175.941406 255.746094 175.304688 254.570312 175.082031 C 253.601562 174.9375 252.707031 175.1875 251.804688 175.535156 C 251.597656 175.621094 251.390625 175.707031 251.179688 175.792969 C 249.855469 176.335938 248.449219 176.703125 247.039062 176.953125 L 246.648438 177.023438 C 242.835938 177.585938 238.839844 177.148438 235.25 175.753906 C 232.691406 174.71875 230.503906 173.335938 228.46875 171.476562 C 228.226562 171.257812 227.980469 171.046875 227.730469 170.835938 C 226.222656 169.515625 225.007812 167.714844 224.050781 165.964844 L 223.9375 165.753906 C 222.902344 163.847656 222.160156 161.800781 221.695312 159.683594 L 221.640625 159.445312 C 220.992188 156.554688 221.128906 153.128906 221.808594 150.265625 L 221.875 149.96875 C 222.132812 148.867188 222.441406 147.8125 222.929688 146.789062 L 223.027344 146.585938 C 224.058594 144.410156 225.320312 142.40625 226.964844 140.640625 C 227.183594 140.40625 227.386719 140.167969 227.589844 139.925781 C 227.984375 139.476562 228.414062 139.09375 228.875 138.714844 L 229.164062 138.46875 C 232.015625 136.09375 235.339844 134.453125 238.964844 133.667969 L 239.222656 133.609375 C 241.875 133.066406 244.960938 133.078125 247.601562 133.667969 M 120.660156 173.667969 L 121.496094 173.667969 C 122.078125 173.664062 122.660156 173.664062 123.242188 173.664062 C 123.976562 173.667969 124.710938 173.664062 125.449219 173.660156 C 126.023438 173.660156 126.597656 173.660156 127.171875 173.660156 C 127.441406 173.660156 127.714844 173.660156 127.984375 173.660156 C 132.097656 173.644531 136.269531 174.082031 139.945312 176.054688 C 142.199219 177.390625 143.828125 179.136719 145.140625 181.378906 C 145.722656 182.421875 146.054688 183.535156 146.339844 184.691406 L 146.398438 184.933594 C 146.714844 186.238281 146.710938 187.570312 146.71875 188.902344 L 146.71875 189.167969 C 146.734375 190.804688 146.589844 192.464844 146.039062 194.019531 L 145.949219 194.269531 C 145.378906 195.855469 144.476562 197.179688 143.421875 198.484375 L 143.242188 198.710938 L 143.058594 198.929688 L 142.894531 199.128906 L 142.75 199.269531 L 142.527344 199.269531 L 142.527344 199.492188 C 141.847656 200.214844 140.839844 201.066406 139.945312 201.511719 C 140.011719 201.941406 140.136719 202.246094 140.363281 202.613281 L 140.558594 202.9375 L 140.773438 203.285156 L 141.117188 203.847656 C 141.199219 203.980469 141.277344 204.113281 141.359375 204.246094 C 141.800781 204.96875 142.226562 205.695312 142.660156 206.421875 C 143.433594 207.734375 144.21875 209.039062 145.011719 210.339844 C 145.5 211.144531 145.988281 211.957031 146.464844 212.769531 C 147.003906 213.691406 147.558594 214.601562 148.117188 215.511719 C 148.347656 215.890625 148.578125 216.269531 148.804688 216.652344 L 149.035156 217.027344 L 149.253906 217.386719 L 149.445312 217.703125 C 149.589844 218 149.648438 218.214844 149.667969 218.542969 C 149.636719 218.890625 149.5625 219.066406 149.402344 219.390625 C 149.140625 219.679688 149.140625 219.679688 148.910156 219.808594 C 148.457031 219.9375 148.039062 219.933594 147.570312 219.933594 L 147.265625 219.9375 C 146.933594 219.9375 146.601562 219.9375 146.269531 219.9375 L 145.574219 219.9375 C 145.089844 219.9375 144.605469 219.9375 144.121094 219.9375 C 143.5 219.9375 142.878906 219.941406 142.257812 219.941406 C 141.78125 219.945312 141.300781 219.945312 140.824219 219.945312 C 140.597656 219.945312 140.367188 219.945312 140.136719 219.945312 C 139.816406 219.945312 139.496094 219.945312 139.175781 219.945312 L 138.890625 219.949219 C 138.460938 219.945312 138.171875 219.910156 137.765625 219.75 C 137.421875 219.53125 137.285156 219.335938 137.082031 218.984375 L 136.96875 218.796875 C 136.527344 218.03125 136.109375 217.246094 135.691406 216.464844 C 135.292969 215.726562 134.886719 214.988281 134.464844 214.261719 C 133.953125 213.371094 133.449219 212.476562 132.953125 211.578125 C 132.148438 210.125 131.339844 208.675781 130.527344 207.230469 L 130.320312 206.859375 C 130.113281 206.496094 129.910156 206.136719 129.707031 205.773438 L 129.519531 205.4375 L 129.34375 205.128906 L 129.191406 204.855469 C 129.082031 204.65625 129.082031 204.65625 128.957031 204.539062 C 128.734375 204.53125 128.507812 204.527344 128.285156 204.527344 L 127.375 204.527344 L 126.894531 204.53125 C 126.46875 204.53125 126.046875 204.53125 125.621094 204.53125 C 125.191406 204.53125 124.757812 204.535156 124.324219 204.535156 C 123.476562 204.535156 122.628906 204.539062 121.78125 204.539062 L 121.78125 204.761719 C 121.773438 206.546875 121.765625 208.332031 121.753906 210.121094 C 121.75 210.984375 121.746094 211.847656 121.742188 212.710938 C 121.738281 213.464844 121.734375 214.214844 121.730469 214.96875 C 121.726562 215.367188 121.726562 215.765625 121.722656 216.164062 C 121.722656 216.609375 121.71875 217.054688 121.714844 217.5 L 121.71875 217.898438 C 121.710938 218.398438 121.691406 218.820312 121.546875 219.296875 C 121.332031 219.566406 121.332031 219.566406 120.976562 219.773438 C 120.519531 219.9375 120.078125 219.949219 119.59375 219.945312 L 119.3125 219.949219 C 119.011719 219.949219 118.710938 219.949219 118.410156 219.949219 C 118.199219 219.949219 117.988281 219.949219 117.777344 219.949219 C 117.335938 219.949219 116.894531 219.949219 116.453125 219.945312 C 115.886719 219.945312 115.324219 219.945312 114.757812 219.949219 C 114.324219 219.949219 113.886719 219.949219 113.453125 219.949219 C 113.242188 219.949219 113.035156 219.949219 112.828125 219.949219 C 112.535156 219.949219 112.246094 219.949219 111.953125 219.945312 L 111.695312 219.949219 C 111.296875 219.945312 111.003906 219.898438 110.632812 219.746094 C 110.335938 219.5625 110.183594 219.417969 110.003906 219.117188 C 109.890625 218.769531 109.878906 218.527344 109.878906 218.160156 L 109.878906 216.871094 C 109.875 216.449219 109.875 216.027344 109.878906 215.605469 C 109.875 215.148438 109.875 214.695312 109.875 214.238281 C 109.875 213.347656 109.875 212.453125 109.875 211.5625 C 109.875 210.835938 109.875 210.109375 109.875 209.382812 C 109.871094 207.324219 109.871094 205.261719 109.871094 203.203125 L 109.871094 202.527344 C 109.871094 200.726562 109.871094 198.929688 109.871094 197.128906 C 109.867188 195.277344 109.867188 193.429688 109.867188 191.578125 C 109.867188 190.542969 109.867188 189.503906 109.867188 188.464844 C 109.863281 187.582031 109.863281 186.699219 109.867188 185.8125 C 109.867188 185.363281 109.867188 184.910156 109.863281 184.460938 C 109.855469 178.957031 109.855469 178.957031 110.882812 176.960938 C 111.429688 176.042969 112.03125 175.433594 112.949219 174.882812 C 115.304688 173.570312 118.039062 173.664062 120.660156 173.667969 M 165.613281 185.445312 C 166.019531 185.449219 166.425781 185.449219 166.835938 185.445312 C 168.414062 185.441406 169.984375 185.460938 171.558594 185.574219 L 171.921875 185.597656 C 173.070312 185.691406 174.167969 185.933594 175.269531 186.261719 L 175.496094 186.324219 C 177.289062 186.855469 178.894531 187.847656 180.207031 189.175781 C 181.273438 190.359375 182.167969 191.929688 182.585938 193.476562 C 183.21875 196.464844 183.324219 199.738281 182.378906 202.675781 C 181.816406 204.285156 180.972656 205.597656 179.757812 206.78125 L 179.511719 207.03125 C 178.171875 208.3125 176.421875 209.097656 174.640625 209.550781 C 173.066406 209.914062 171.554688 210.050781 169.941406 210.046875 L 169.476562 210.046875 C 169.074219 210.042969 168.671875 210.042969 168.269531 210.042969 C 167.859375 210.042969 167.445312 210.039062 167.035156 210.039062 C 166.230469 210.039062 165.421875 210.039062 164.617188 210.035156 L 164.621094 210.378906 C 164.625 211.453125 164.628906 212.527344 164.628906 213.601562 C 164.628906 214.15625 164.632812 214.707031 164.632812 215.257812 C 164.636719 215.792969 164.636719 216.324219 164.640625 216.859375 C 164.640625 217.0625 164.640625 217.265625 164.640625 217.46875 C 164.644531 217.753906 164.644531 218.039062 164.644531 218.324219 L 164.644531 218.578125 C 164.644531 219.03125 164.601562 219.386719 164.394531 219.789062 C 164.183594 220.042969 164.183594 220.042969 163.945312 220.238281 C 163.578125 220.363281 163.226562 220.367188 162.839844 220.371094 L 162.4375 220.375 L 161.558594 220.375 C 161.246094 220.378906 160.9375 220.378906 160.625 220.378906 C 160.226562 220.378906 159.828125 220.382812 159.433594 220.386719 C 159.050781 220.386719 158.671875 220.386719 158.289062 220.386719 L 157.859375 220.394531 L 157.453125 220.390625 L 157.101562 220.394531 C 156.707031 220.34375 156.4375 220.214844 156.09375 220.015625 C 155.882812 219.792969 155.777344 219.636719 155.695312 219.339844 C 155.625 218.863281 155.628906 218.394531 155.632812 217.914062 L 155.628906 217.578125 C 155.628906 217.207031 155.628906 216.835938 155.628906 216.464844 L 155.628906 215.664062 C 155.628906 215.015625 155.628906 214.367188 155.628906 213.71875 C 155.628906 213.191406 155.628906 212.664062 155.628906 212.136719 C 155.625 210.636719 155.625 209.136719 155.625 207.636719 L 155.625 207.144531 C 155.625 205.835938 155.625 204.527344 155.625 203.21875 C 155.621094 201.875 155.621094 200.527344 155.621094 199.183594 C 155.621094 198.429688 155.621094 197.671875 155.621094 196.917969 C 155.617188 196.207031 155.617188 195.496094 155.617188 194.785156 C 155.621094 194.527344 155.617188 194.265625 155.617188 194.007812 C 155.605469 189.445312 155.605469 189.445312 156.507812 187.808594 C 156.925781 187.15625 157.398438 186.691406 158.082031 186.320312 C 159.011719 185.882812 159.882812 185.664062 160.902344 185.574219 L 161.238281 185.546875 C 162.695312 185.4375 164.152344 185.441406 165.613281 185.445312 M 229.148438 185.671875 C 230.101562 186.007812 230.828125 186.472656 231.546875 187.175781 C 232.382812 188.269531 232.792969 189.5625 233.246094 190.84375 C 233.324219 191.058594 233.402344 191.277344 233.480469 191.492188 C 233.648438 191.960938 233.816406 192.433594 233.984375 192.902344 C 234.269531 193.691406 234.550781 194.480469 234.835938 195.269531 L 235.140625 196.105469 L 235.214844 196.320312 C 235.503906 197.121094 235.792969 197.921875 236.082031 198.722656 C 236.558594 200.046875 237.039062 201.375 237.515625 202.699219 L 237.671875 203.136719 L 237.75 203.351562 C 238.453125 205.292969 239.152344 207.238281 239.851562 209.179688 C 240.058594 209.753906 240.265625 210.328125 240.472656 210.898438 C 240.855469 211.972656 241.246094 213.046875 241.636719 214.121094 C 241.828125 214.640625 242.019531 215.160156 242.207031 215.679688 C 242.296875 215.925781 242.390625 216.175781 242.480469 216.421875 C 242.609375 216.765625 242.734375 217.109375 242.859375 217.453125 L 242.972656 217.757812 C 243.167969 218.304688 243.28125 218.753906 243.226562 219.34375 C 243.078125 219.671875 242.9375 219.863281 242.667969 220.097656 C 242.375 220.28125 242.144531 220.351562 241.800781 220.367188 L 241.429688 220.371094 L 241.007812 220.375 L 240.082031 220.375 C 239.753906 220.378906 239.425781 220.378906 239.101562 220.378906 C 238.679688 220.378906 238.261719 220.382812 237.84375 220.386719 C 237.519531 220.386719 237.195312 220.386719 236.875 220.386719 C 236.71875 220.386719 236.566406 220.390625 236.410156 220.390625 C 236.195312 220.394531 235.976562 220.390625 235.761719 220.390625 L 235.390625 220.394531 C 234.984375 220.34375 234.71875 220.222656 234.367188 220.015625 C 233.132812 218.777344 233.105469 216.75 232.574219 215.082031 L 221.472656 215.082031 L 220.015625 219.679688 C 219.34375 220.238281 219.34375 220.238281 219.117188 220.351562 C 218.898438 220.363281 218.675781 220.371094 218.457031 220.371094 L 218.035156 220.375 C 217.882812 220.375 217.730469 220.378906 217.578125 220.378906 L 217.34375 220.378906 C 216.9375 220.382812 216.53125 220.382812 216.125 220.382812 C 215.707031 220.386719 215.289062 220.390625 214.871094 220.394531 C 214.546875 220.398438 214.222656 220.398438 213.902344 220.398438 C 213.746094 220.398438 213.59375 220.402344 213.4375 220.402344 C 212.082031 220.417969 212.082031 220.417969 211.574219 220.152344 C 211.269531 219.902344 211.269531 219.902344 211.109375 219.679688 C 210.96875 219.1875 210.988281 218.691406 211.101562 218.195312 C 211.175781 217.945312 211.261719 217.703125 211.351562 217.457031 L 211.539062 216.921875 L 211.632812 216.664062 C 211.742188 216.359375 211.839844 216.050781 211.941406 215.738281 C 212.140625 215.140625 212.363281 214.550781 212.589844 213.960938 C 212.816406 213.363281 213.011719 212.753906 213.191406 212.140625 C 213.28125 211.839844 213.390625 211.558594 213.511719 211.269531 C 213.917969 210.230469 214.296875 209.183594 214.664062 208.132812 C 214.78125 207.796875 214.902344 207.457031 215.023438 207.117188 C 215.222656 206.570312 215.417969 206.015625 215.609375 205.464844 C 215.953125 204.503906 216.292969 203.539062 216.636719 202.578125 C 217.261719 200.84375 217.878906 199.105469 218.492188 197.363281 C 219.121094 195.585938 219.753906 193.8125 220.382812 192.035156 C 220.453125 191.832031 220.523438 191.632812 220.597656 191.429688 C 221.878906 187.8125 221.878906 187.8125 222.957031 186.792969 C 224.703125 185.332031 227.011719 185.035156 229.148438 185.671875 M 246.367188 185.496094 C 246.519531 185.558594 246.667969 185.628906 246.816406 185.699219 L 247.0625 185.8125 C 248.074219 186.320312 248.894531 187.097656 249.515625 188.039062 C 249.914062 188.683594 250.300781 189.328125 250.6875 189.976562 C 251.117188 190.703125 251.558594 191.425781 251.996094 192.148438 L 252.730469 193.359375 C 253.382812 194.433594 254.035156 195.503906 254.6875 196.578125 C 254.824219 196.800781 254.957031 197.023438 255.09375 197.246094 L 255.28125 197.550781 L 255.445312 197.820312 C 255.5625 198.035156 255.5625 198.035156 255.5625 198.261719 C 255.882812 197.960938 256.109375 197.679688 256.320312 197.296875 L 256.488281 196.992188 L 256.671875 196.660156 C 256.800781 196.425781 256.933594 196.191406 257.0625 195.957031 L 257.265625 195.59375 C 257.585938 195.023438 257.917969 194.457031 258.246094 193.894531 L 258.445312 193.558594 L 258.839844 192.882812 C 259.042969 192.535156 259.242188 192.191406 259.445312 191.84375 C 259.832031 191.179688 260.21875 190.511719 260.609375 189.847656 L 260.78125 189.554688 C 262.410156 186.789062 262.410156 186.789062 263.683594 185.972656 C 264.4375 185.554688 265.113281 185.335938 265.980469 185.308594 C 266.90625 185.339844 267.726562 185.542969 268.546875 185.976562 C 269.152344 186.363281 269.597656 186.808594 269.984375 187.410156 C 270.316406 188.058594 270.4375 188.734375 270.527344 189.449219 C 270.316406 191.179688 269.339844 192.574219 268.410156 194 C 267.960938 194.6875 267.519531 195.382812 267.085938 196.082031 L 266.871094 196.425781 C 266.726562 196.65625 266.582031 196.890625 266.4375 197.125 C 266.074219 197.699219 265.714844 198.277344 265.355469 198.855469 L 265.140625 199.195312 C 264.664062 199.960938 264.183594 200.726562 263.699219 201.488281 C 263.1875 202.296875 262.679688 203.109375 262.175781 203.921875 L 261.980469 204.234375 L 261.78125 204.5625 C 261.578125 204.886719 261.355469 205.195312 261.125 205.503906 C 260.535156 206.316406 259.953125 207.117188 259.796875 208.125 C 259.730469 208.835938 259.75 209.542969 259.765625 210.253906 C 259.769531 210.511719 259.769531 210.769531 259.769531 211.03125 C 259.769531 211.703125 259.777344 212.375 259.789062 213.050781 C 259.804688 213.875 259.804688 214.695312 259.808594 215.519531 C 259.8125 216.15625 259.816406 216.796875 259.828125 217.433594 L 259.832031 217.789062 C 259.835938 218.007812 259.835938 218.222656 259.84375 218.441406 C 259.847656 218.84375 259.839844 219.175781 259.730469 219.5625 C 259.554688 219.875 259.332031 220.039062 259.039062 220.238281 C 258.6875 220.355469 258.4375 220.367188 258.070312 220.371094 L 257.675781 220.375 L 256.808594 220.375 C 256.5 220.378906 256.195312 220.378906 255.886719 220.378906 C 255.496094 220.378906 255.105469 220.382812 254.714844 220.386719 C 254.339844 220.386719 253.964844 220.386719 253.589844 220.386719 L 253.164062 220.394531 C 252.617188 220.390625 252.183594 220.386719 251.667969 220.195312 C 251.402344 220.007812 251.246094 219.847656 251.078125 219.566406 C 250.972656 219.253906 250.953125 219.074219 250.957031 218.75 L 250.960938 218.449219 L 250.964844 218.125 L 250.96875 217.417969 L 250.972656 217.039062 C 250.980469 216.230469 250.980469 215.425781 250.984375 214.621094 C 250.984375 213.914062 250.988281 213.207031 250.996094 212.5 C 251.003906 211.816406 251.007812 211.132812 251.003906 210.445312 C 251.003906 210.1875 251.007812 209.925781 251.011719 209.667969 C 251.050781 208.085938 251.050781 208.085938 250.558594 206.605469 C 250.289062 206.152344 249.988281 205.726562 249.664062 205.308594 C 249.453125 205.03125 249.269531 204.738281 249.089844 204.441406 L 248.738281 203.886719 L 248.335938 203.261719 L 248.136719 202.945312 C 247.941406 202.640625 247.746094 202.332031 247.550781 202.027344 C 246.785156 200.820312 246.015625 199.613281 245.242188 198.40625 C 244.691406 197.550781 244.144531 196.691406 243.597656 195.832031 C 243.246094 195.273438 242.890625 194.71875 242.53125 194.167969 L 242.289062 193.792969 C 242.136719 193.554688 241.980469 193.316406 241.828125 193.082031 C 240.472656 190.988281 240.472656 190.988281 240.398438 189.925781 C 240.382812 189.152344 240.386719 188.464844 240.726562 187.75 C 241.160156 187 241.644531 186.410156 242.394531 185.957031 C 243.613281 185.308594 245.019531 185.085938 246.367188 185.496094 M 191.699219 185.597656 C 192.386719 185.847656 193.050781 186.15625 193.550781 186.710938 C 194.027344 187.355469 194.371094 187.945312 194.558594 188.726562 C 194.589844 189.050781 194.589844 189.371094 194.589844 189.695312 L 194.589844 189.980469 C 194.59375 190.296875 194.589844 190.613281 194.589844 190.925781 L 194.59375 191.605469 C 194.59375 192.09375 194.597656 192.582031 194.597656 193.070312 C 194.597656 193.839844 194.601562 194.609375 194.601562 195.378906 C 194.609375 197.15625 194.613281 198.929688 194.617188 200.703125 C 194.621094 202.328125 194.625 203.957031 194.628906 205.582031 C 194.632812 206.347656 194.632812 207.113281 194.632812 207.878906 C 194.636719 208.355469 194.636719 208.832031 194.636719 209.308594 C 194.640625 209.53125 194.640625 209.75 194.640625 209.972656 C 194.640625 210.273438 194.640625 210.574219 194.640625 210.875 L 194.640625 211.140625 C 194.644531 211.636719 194.695312 212.046875 194.894531 212.5 C 195.269531 212.6875 195.6875 212.632812 196.09375 212.632812 L 196.402344 212.636719 C 196.621094 212.636719 196.839844 212.636719 197.0625 212.640625 C 197.410156 212.640625 197.757812 212.644531 198.109375 212.648438 C 199.101562 212.65625 200.09375 212.660156 201.085938 212.667969 C 201.691406 212.671875 202.296875 212.675781 202.90625 212.679688 C 203.136719 212.683594 203.367188 212.683594 203.597656 212.683594 C 203.921875 212.6875 204.246094 212.6875 204.570312 212.691406 L 204.855469 212.691406 C 205.753906 212.703125 206.671875 212.8125 207.46875 213.25 C 207.964844 213.597656 208.320312 214.03125 208.609375 214.558594 C 208.953125 215.339844 209.074219 216.117188 208.996094 216.96875 C 208.863281 217.835938 208.59375 218.613281 208.058594 219.3125 C 207.644531 219.765625 207.125 220.023438 206.558594 220.238281 C 206.160156 220.335938 205.792969 220.367188 205.382812 220.367188 L 205.011719 220.371094 L 204.179688 220.371094 C 203.792969 220.371094 203.410156 220.375 203.023438 220.375 L 202.292969 220.375 C 201.53125 220.375 200.773438 220.378906 200.011719 220.378906 C 199.136719 220.378906 198.261719 220.378906 197.390625 220.382812 C 196.710938 220.386719 196.035156 220.386719 195.355469 220.386719 C 194.953125 220.386719 194.546875 220.390625 194.144531 220.390625 C 189.429688 220.414062 189.429688 220.414062 187.941406 219.566406 C 187.296875 219.160156 186.800781 218.703125 186.402344 218.054688 C 185.488281 216.261719 185.554688 214.265625 185.558594 212.308594 L 185.554688 211.542969 C 185.554688 210.855469 185.554688 210.167969 185.554688 209.480469 C 185.554688 208.90625 185.554688 208.332031 185.554688 207.753906 C 185.550781 206.320312 185.550781 204.886719 185.550781 203.453125 C 185.554688 202.207031 185.550781 200.964844 185.550781 199.722656 C 185.546875 198.441406 185.546875 197.160156 185.546875 195.882812 C 185.546875 195.164062 185.546875 194.445312 185.546875 193.730469 C 185.542969 193.054688 185.542969 192.378906 185.546875 191.707031 C 185.546875 191.460938 185.546875 191.210938 185.542969 190.964844 C 185.542969 190.628906 185.542969 190.289062 185.546875 189.953125 L 185.542969 189.660156 C 185.550781 188.972656 185.667969 188.355469 185.925781 187.71875 C 186.324219 187.046875 186.859375 186.492188 187.496094 186.035156 C 187.820312 185.855469 188.152344 185.714844 188.503906 185.589844 L 188.867188 185.449219 C 189.832031 185.253906 190.761719 185.308594 191.699219 185.597656 " fill-opacity="1" fill-rule="nonzero"/><path fill="#fefefe" d="M 236.453125 156.0625 L 236.878906 156.0625 C 237.261719 156.0625 237.644531 156.0625 238.027344 156.0625 C 238.347656 156.0625 238.671875 156.0625 238.992188 156.058594 C 239.75 156.058594 240.507812 156.058594 241.269531 156.058594 C 242.046875 156.058594 242.828125 156.058594 243.609375 156.058594 C 244.28125 156.054688 244.953125 156.054688 245.625 156.054688 C 246.023438 156.054688 246.425781 156.054688 246.824219 156.054688 C 247.273438 156.050781 247.71875 156.050781 248.167969 156.054688 L 248.5625 156.050781 C 249.53125 156.058594 250.359375 156.203125 251.210938 156.675781 C 251.769531 157.054688 252.207031 157.519531 252.546875 158.101562 C 252.953125 159.066406 252.808594 160.261719 252.734375 161.285156 C 252.550781 162.65625 252.007812 163.976562 251.203125 165.097656 C 250.011719 166.632812 248.605469 167.6875 246.816406 168.429688 C 244.695312 169.203125 242.214844 169.355469 239.988281 168.976562 C 238.101562 168.609375 236.367188 167.855469 234.894531 166.609375 C 233.6875 165.453125 232.835938 164.113281 232.316406 162.523438 C 232.152344 161.945312 232.035156 161.40625 232.015625 160.804688 L 231.992188 160.363281 C 231.964844 159.511719 231.964844 158.726562 232.308594 157.929688 C 232.632812 157.378906 233.050781 156.964844 233.589844 156.621094 C 234.535156 156.121094 235.398438 156.0625 236.453125 156.0625 M 123.558594 183.554688 L 123.949219 183.550781 L 124.8125 183.550781 C 125.117188 183.550781 125.425781 183.546875 125.730469 183.550781 C 126.121094 183.550781 126.507812 183.546875 126.898438 183.546875 C 127.273438 183.542969 127.648438 183.542969 128.023438 183.542969 L 128.441406 183.542969 C 129.882812 183.546875 131.257812 183.664062 132.546875 184.355469 C 133.457031 184.929688 134.035156 185.648438 134.535156 186.589844 C 135.042969 187.675781 135.09375 188.75 135.035156 189.933594 C 134.945312 190.972656 134.574219 191.871094 133.984375 192.71875 C 133.367188 193.527344 132.703125 194.042969 131.761719 194.445312 C 130.574219 194.804688 129.425781 194.832031 128.203125 194.820312 L 127.644531 194.820312 C 127.257812 194.820312 126.871094 194.816406 126.484375 194.816406 C 125.988281 194.8125 125.492188 194.8125 124.996094 194.808594 C 124.617188 194.808594 124.234375 194.808594 123.851562 194.808594 L 123.300781 194.804688 C 123.046875 194.804688 122.792969 194.804688 122.539062 194.800781 L 122.101562 194.800781 L 121.78125 194.785156 L 121.667969 194.671875 C 121.65625 194.371094 121.652344 194.066406 121.652344 193.765625 L 121.652344 193.476562 C 121.648438 193.160156 121.648438 192.84375 121.648438 192.53125 L 121.648438 191.871094 C 121.648438 191.410156 121.648438 190.949219 121.648438 190.488281 C 121.648438 189.902344 121.644531 189.3125 121.644531 188.722656 C 121.644531 188.269531 121.640625 187.816406 121.640625 187.363281 C 121.640625 187.144531 121.640625 186.925781 121.640625 186.710938 C 121.640625 186.40625 121.640625 186.101562 121.640625 185.796875 C 121.640625 185.707031 121.640625 185.617188 121.640625 185.527344 C 121.640625 184.980469 121.707031 184.53125 121.890625 184.019531 C 122.09375 183.808594 122.09375 183.808594 122.339844 183.683594 C 122.75 183.582031 123.136719 183.554688 123.558594 183.554688 M 171.738281 193.507812 C 172.46875 193.917969 173.003906 194.386719 173.449219 195.097656 C 173.914062 195.960938 174.144531 196.757812 174.152344 197.742188 C 174.109375 198.746094 173.949219 199.699219 173.414062 200.5625 C 172.949219 201.183594 172.441406 201.757812 171.734375 202.097656 C 171.101562 202.355469 170.550781 202.535156 169.863281 202.535156 L 169.507812 202.535156 L 169.128906 202.53125 L 168.738281 202.53125 C 168.328125 202.53125 167.917969 202.53125 167.503906 202.527344 C 167.226562 202.527344 166.949219 202.527344 166.667969 202.527344 C 165.984375 202.527344 165.300781 202.523438 164.617188 202.519531 C 164.605469 201.375 164.59375 200.230469 164.589844 199.085938 C 164.585938 198.554688 164.582031 198.019531 164.574219 197.488281 C 164.570312 196.976562 164.566406 196.464844 164.566406 195.949219 C 164.5625 195.753906 164.5625 195.558594 164.558594 195.363281 C 164.554688 195.085938 164.554688 194.8125 164.554688 194.539062 L 164.546875 194.292969 C 164.550781 194.066406 164.550781 194.066406 164.617188 193.664062 C 164.882812 193.332031 164.882812 193.332031 165.179688 193.101562 C 166.960938 192.609375 170.050781 192.742188 171.738281 193.507812 M 226.855469 197.585938 C 227.113281 197.695312 227.113281 197.695312 227.417969 197.921875 C 227.582031 198.234375 227.675781 198.5625 227.777344 198.902344 L 227.875 199.210938 C 227.984375 199.566406 228.09375 199.921875 228.203125 200.277344 L 228.324219 200.683594 C 228.59375 201.570312 228.859375 202.457031 229.121094 203.347656 C 229.238281 203.738281 229.355469 204.128906 229.472656 204.519531 C 229.5625 204.824219 229.652344 205.128906 229.742188 205.433594 C 229.804688 205.644531 229.867188 205.859375 229.933594 206.074219 L 230.046875 206.464844 L 230.148438 206.808594 C 230.21875 207.117188 230.21875 207.117188 230.21875 207.679688 L 223.714844 207.679688 C 223.855469 207.054688 223.992188 206.460938 224.175781 205.851562 L 224.242188 205.625 C 224.316406 205.378906 224.386719 205.136719 224.460938 204.890625 L 224.617188 204.375 C 224.722656 204.015625 224.832031 203.65625 224.9375 203.296875 C 225.074219 202.839844 225.210938 202.378906 225.347656 201.921875 C 225.453125 201.566406 225.5625 201.210938 225.667969 200.855469 C 225.71875 200.6875 225.769531 200.519531 225.816406 200.351562 C 226.101562 199.394531 226.410156 198.480469 226.855469 197.585938 " fill-opacity="1" fill-rule="nonzero"/></svg>