<svg xmlns="http://www.w3.org/2000/svg" xmlns:xlink="http://www.w3.org/1999/xlink" width="500" zoomAndPan="magnify" viewBox="0 0 375 374.999991" height="500" preserveAspectRatio="xMidYMid meet" version="1.2"><g id="b3413ba4e8"><path style=" stroke:none;fill-rule:nonzero;fill:#000000;fill-opacity:1;" d="M 166.042969 84.582031 L 177.082031 84.582031 L 177.082031 90 L 182.5 90 L 182.5 282.917969 C 181.945312 283.195312 181.523438 283.148438 180.902344 283.144531 L 180.195312 283.144531 L 179.453125 283.136719 L 178.707031 283.136719 C 178.09375 283.132812 177.484375 283.128906 176.875 283.125 L 176.878906 283.554688 C 176.882812 284.199219 176.886719 284.839844 176.886719 285.480469 L 176.894531 286.160156 L 176.894531 286.808594 L 176.898438 287.40625 C 176.875 287.917969 176.875 287.917969 176.667969 288.542969 L 166.042969 288.542969 L 166.042969 283.125 C 164.660156 283.132812 164.660156 283.132812 163.273438 283.144531 L 162.746094 283.144531 L 162.210938 283.148438 C 161.667969 283.125 161.667969 283.125 160.417969 282.917969 L 160.417969 277.5 L 158.996094 277.511719 C 157.632812 277.527344 156.375 277.417969 155 277.292969 L 155 271.875 L 149.582031 271.667969 L 149.582031 266.25 C 147.964844 266.265625 147.964844 266.265625 146.347656 266.289062 L 145.738281 266.289062 L 145.113281 266.296875 C 144.582031 266.25 144.582031 266.25 143.957031 265.832031 C 143.867188 265.328125 143.867188 265.328125 143.851562 264.699219 L 143.832031 264.085938 L 143.816406 263.308594 L 143.75 260.832031 L 138.332031 260.625 L 138.332031 255.207031 L 132.707031 255.207031 L 132.707031 249.792969 L 126.875 249.792969 L 126.875 244.167969 C 125.101562 244.175781 125.101562 244.175781 123.328125 244.183594 L 122.664062 244.1875 L 121.980469 244.191406 L 121.457031 244.167969 L 121.25 243.957031 L 121.25 238.75 L 60.207031 238.75 C 60.199219 212.613281 60.199219 212.613281 60.199219 202.160156 L 60.195312 193.78125 C 60.195312 188.734375 60.195312 183.683594 60.191406 178.632812 C 60.1875 172.710938 60.1875 166.792969 60.1875 160.871094 L 60.1875 160.433594 C 60.1875 158.113281 60.1875 155.789062 60.1875 153.464844 C 60.183594 151.128906 60.183594 148.796875 60.183594 146.464844 C 60.183594 145.199219 60.183594 143.933594 60.183594 142.667969 C 60.183594 141.511719 60.183594 140.355469 60.183594 139.199219 C 60.183594 138.777344 60.183594 138.359375 60.183594 137.9375 C 60.179688 137.371094 60.183594 136.804688 60.183594 136.234375 L 60.179688 135.730469 C 60.183594 135.347656 60.195312 134.964844 60.207031 134.582031 L 60.417969 134.375 C 60.746094 134.355469 61.074219 134.347656 61.40625 134.347656 L 62.058594 134.347656 L 62.78125 134.351562 L 63.546875 134.347656 C 64.25 134.347656 64.953125 134.351562 65.65625 134.351562 C 66.410156 134.351562 67.167969 134.351562 67.925781 134.351562 C 69.234375 134.351562 70.546875 134.351562 71.859375 134.351562 C 73.753906 134.355469 75.652344 134.355469 77.546875 134.355469 C 80.625 134.355469 83.703125 134.355469 86.777344 134.359375 C 89.769531 134.363281 92.757812 134.363281 95.746094 134.363281 L 99.078125 134.363281 C 106.746094 134.367188 114.414062 134.371094 122.082031 134.375 L 122.082031 128.75 L 127.292969 128.542969 L 127.5 123.332031 L 132.917969 123.332031 L 133.125 118.125 C 133.65625 117.859375 134.035156 117.894531 134.628906 117.894531 L 135.28125 117.898438 L 135.964844 117.902344 L 136.652344 117.90625 C 137.210938 117.910156 137.773438 117.914062 138.332031 117.917969 L 138.328125 117.402344 C 138.324219 116.640625 138.324219 115.878906 138.320312 115.117188 L 138.316406 114.308594 L 138.3125 113.542969 L 138.308594 112.832031 L 138.332031 112.292969 L 138.542969 112.082031 C 138.941406 112.066406 139.34375 112.0625 139.746094 112.0625 L 140.410156 112.066406 L 141.261719 112.070312 L 143.957031 112.082031 L 143.957031 106.667969 C 144.667969 106.488281 145.160156 106.433594 145.875 106.4375 L 146.496094 106.441406 L 147.136719 106.445312 L 147.785156 106.449219 C 148.316406 106.449219 148.84375 106.453125 149.375 106.457031 L 149.371094 106.046875 C 149.367188 105.433594 149.363281 104.820312 149.363281 104.207031 L 149.355469 103.558594 L 149.355469 102.9375 L 149.351562 102.367188 C 149.375 101.875 149.375 101.875 149.582031 101.25 L 155 101.042969 L 155 95.625 L 160.417969 95.625 L 160.417969 90.207031 C 160.972656 89.929688 161.394531 89.976562 162.011719 89.980469 L 162.652344 89.980469 L 163.464844 89.988281 L 166.042969 90 Z M 166.042969 84.582031 "/><path style=" stroke:none;fill-rule:nonzero;fill:#000000;fill-opacity:1;" d="M 257.917969 95.625 L 279.792969 95.625 L 279.792969 101.042969 C 281.105469 101.035156 281.105469 101.035156 282.421875 101.023438 L 282.925781 101.019531 L 283.433594 101.019531 C 284.03125 101.046875 284.621094 101.152344 285.207031 101.25 L 285.207031 106.457031 L 290.625 106.457031 L 290.625 117.917969 L 296.042969 117.917969 L 296.25 123.125 L 301.667969 123.332031 L 301.667969 134.375 L 307.5 134.375 L 307.707031 150.625 L 313.332031 150.832031 L 313.332031 216.875 C 308.75 216.875 308.75 216.875 307.5 216.667969 L 307.5 217.246094 C 307.503906 219.046875 307.507812 220.851562 307.511719 222.652344 C 307.511719 223.582031 307.511719 224.507812 307.515625 225.433594 C 307.519531 226.328125 307.519531 227.222656 307.519531 228.117188 C 307.519531 228.457031 307.519531 228.800781 307.523438 229.140625 C 307.523438 229.617188 307.523438 230.097656 307.523438 230.574219 L 307.523438 231.398438 C 307.5 232.082031 307.5 232.082031 307.292969 232.917969 L 301.667969 232.917969 L 301.667969 244.167969 L 296.25 244.167969 C 296.191406 245.941406 296.191406 245.941406 296.132812 247.714844 L 296.109375 248.378906 L 296.085938 249.0625 L 296.042969 249.582031 L 295.832031 249.792969 L 290.625 249.792969 L 290.625 260.625 L 285.207031 260.625 L 285.207031 266.042969 C 284.570312 266.253906 284.140625 266.273438 283.472656 266.269531 L 282.890625 266.269531 L 282.148438 266.261719 L 279.792969 266.25 L 279.792969 271.667969 L 274.167969 271.875 L 274.167969 277.292969 C 273.664062 277.542969 273.347656 277.527344 272.789062 277.527344 L 270.859375 277.527344 C 270.390625 277.527344 269.925781 277.527344 269.457031 277.527344 C 268.738281 277.527344 268.019531 277.527344 267.300781 277.527344 C 266.851562 277.527344 266.394531 277.527344 265.941406 277.527344 L 264.152344 277.527344 L 263.75 277.5 L 263.542969 277.292969 C 263.511719 276.890625 263.488281 276.488281 263.476562 276.085938 L 263.449219 275.347656 L 263.425781 274.570312 L 263.398438 273.789062 C 263.375 273.152344 263.355469 272.511719 263.332031 271.875 L 262.882812 271.878906 C 262.207031 271.882812 261.53125 271.886719 260.859375 271.886719 L 260.148438 271.894531 L 259.46875 271.894531 L 258.839844 271.898438 C 258.332031 271.875 258.332031 271.875 257.917969 271.667969 C 257.910156 270.246094 257.90625 268.824219 257.90625 267.40625 C 257.902344 266.921875 257.902344 266.4375 257.902344 265.953125 C 257.898438 265.261719 257.898438 264.566406 257.894531 263.875 L 257.894531 262.609375 L 257.890625 262.070312 L 257.917969 261.667969 L 258.125 261.457031 C 258.511719 261.441406 258.898438 261.4375 259.285156 261.4375 L 259.925781 261.441406 L 260.742188 261.445312 L 263.332031 261.457031 L 263.542969 256.042969 L 268.957031 255.832031 C 268.949219 254.214844 268.949219 254.214844 268.941406 252.597656 L 268.9375 251.988281 L 268.933594 251.363281 C 268.957031 250.832031 268.957031 250.832031 269.167969 250.207031 L 274.582031 250.207031 L 274.574219 248.984375 L 274.570312 247.410156 L 274.566406 246.601562 L 274.5625 245.835938 L 274.558594 245.125 L 274.582031 244.582031 L 274.792969 244.375 L 280 244.375 L 280 233.332031 L 285.625 233.332031 L 285.617188 231.070312 C 285.617188 230.347656 285.613281 229.625 285.613281 228.90625 C 285.613281 228.402344 285.609375 227.902344 285.609375 227.398438 C 285.605469 226.675781 285.605469 225.957031 285.605469 225.234375 L 285.601562 224.550781 L 285.601562 223.363281 C 285.625 222.917969 285.625 222.917969 285.832031 222.5 L 290.832031 222.292969 L 290.847656 220.867188 C 290.867188 219.316406 290.886719 217.765625 290.902344 216.210938 C 290.914062 215.269531 290.925781 214.332031 290.9375 213.390625 C 290.945312 212.480469 290.957031 211.574219 290.96875 210.667969 C 290.972656 210.320312 290.976562 209.972656 290.980469 209.625 C 290.984375 209.140625 290.992188 208.65625 291 208.171875 L 291.003906 207.734375 C 291.011719 207.113281 291.050781 206.636719 291.25 206.042969 L 296.457031 206.042969 L 296.457031 161.875 L 291.042969 161.875 L 291.042969 145 L 285.625 145 L 285.625 134.167969 L 280 134.167969 L 280 123.125 L 274.582031 123.125 L 274.582031 117.5 L 269.167969 117.5 C 268.890625 116.945312 268.933594 116.523438 268.9375 115.902344 L 268.941406 115.195312 L 268.945312 114.453125 L 268.949219 113.707031 C 268.949219 113.09375 268.953125 112.484375 268.957031 111.875 L 268.507812 111.878906 C 267.832031 111.882812 267.15625 111.886719 266.484375 111.886719 L 265.773438 111.894531 L 265.09375 111.894531 L 264.464844 111.898438 C 263.957031 111.875 263.957031 111.875 263.542969 111.667969 L 263.332031 106.042969 L 257.917969 106.042969 Z M 257.917969 95.625 "/><path style=" stroke:none;fill-rule:nonzero;fill:#000000;fill-opacity:1;" d="M 230.417969 117.917969 C 230.921875 117.878906 231.429688 117.863281 231.9375 117.871094 L 232.410156 117.871094 C 232.929688 117.871094 233.449219 117.871094 233.964844 117.875 L 235.042969 117.878906 C 235.988281 117.878906 236.9375 117.882812 237.882812 117.886719 C 238.847656 117.890625 239.8125 117.894531 240.777344 117.894531 C 242.671875 117.902344 244.5625 117.90625 246.457031 117.917969 C 246.691406 119.746094 246.691406 119.746094 246.6875 120.566406 L 246.683594 121.015625 L 246.679688 121.5625 L 246.667969 123.332031 L 252.292969 123.332031 L 252.292969 128.75 L 257.707031 128.75 L 257.707031 134.375 L 263.332031 134.375 L 263.125 145 L 268.75 145 L 268.75 156.457031 L 274.167969 156.457031 C 274.410156 156.945312 274.402344 157.226562 274.402344 157.769531 L 274.402344 159.640625 C 274.402344 160.382812 274.402344 161.125 274.402344 161.867188 L 274.402344 163.460938 C 274.402344 164.757812 274.402344 166.050781 274.402344 167.347656 C 274.402344 168.855469 274.402344 170.363281 274.402344 171.871094 C 274.402344 174.722656 274.402344 177.574219 274.402344 180.425781 C 274.402344 182.875 274.402344 185.324219 274.402344 187.769531 C 274.402344 190.914062 274.402344 194.058594 274.402344 197.203125 L 274.402344 197.652344 C 274.402344 198.707031 274.402344 199.757812 274.402344 200.808594 C 274.402344 202.222656 274.402344 203.636719 274.402344 205.050781 C 274.402344 205.574219 274.402344 206.09375 274.402344 206.613281 C 274.402344 207.320312 274.402344 208.03125 274.402344 208.738281 L 274.402344 210.4375 C 274.375 210.832031 274.375 210.832031 274.167969 211.25 L 268.75 211.25 L 268.75 227.917969 C 268.101562 228.132812 267.652344 228.148438 266.96875 228.144531 L 266.292969 228.144531 L 265.585938 228.136719 L 264.871094 228.136719 C 264.289062 228.132812 263.707031 228.128906 263.125 228.125 L 263.152344 228.535156 C 263.195312 229.148438 263.230469 229.761719 263.269531 230.378906 L 263.3125 231.023438 L 263.347656 231.644531 L 263.386719 232.214844 L 263.332031 232.707031 L 262.707031 233.332031 L 257.707031 233.332031 L 257.707031 244.167969 L 252.292969 244.167969 L 252.292969 249.792969 C 250.207031 249.800781 248.121094 249.808594 246.039062 249.8125 C 245.070312 249.816406 244.101562 249.820312 243.136719 249.824219 C 242.203125 249.828125 241.269531 249.832031 240.335938 249.832031 C 239.976562 249.832031 239.621094 249.832031 239.265625 249.835938 C 238.765625 249.839844 238.269531 249.839844 237.769531 249.839844 L 237.320312 249.84375 C 236.964844 249.84375 236.605469 249.820312 236.25 249.792969 L 235.832031 249.375 C 235.78125 248.792969 235.78125 248.792969 235.785156 248.054688 L 235.785156 247.230469 L 235.792969 246.355469 L 235.796875 245.46875 C 235.808594 243.863281 235.839844 242.257812 235.925781 240.652344 L 235.949219 240.191406 C 235.972656 239.847656 236.003906 239.507812 236.042969 239.167969 L 236.25 238.957031 C 236.621094 238.925781 236.992188 238.90625 237.363281 238.890625 L 237.976562 238.867188 L 238.761719 238.839844 L 241.25 238.75 L 241.457031 233.332031 L 247.082031 233.332031 L 247.082031 227.917969 L 252.292969 227.707031 L 252.5 216.667969 L 257.707031 216.457031 L 257.722656 215.007812 C 257.742188 213.429688 257.761719 211.851562 257.777344 210.277344 C 257.789062 209.320312 257.800781 208.363281 257.8125 207.40625 C 257.820312 206.484375 257.832031 205.558594 257.84375 204.636719 C 257.847656 204.285156 257.851562 203.933594 257.855469 203.578125 C 257.859375 203.085938 257.867188 202.59375 257.875 202.101562 L 257.878906 201.65625 C 257.882812 201.3125 257.898438 200.96875 257.917969 200.625 L 258.125 200.417969 L 263.332031 200.417969 L 263.542969 172.917969 L 257.917969 172.707031 L 257.707031 156.25 L 252.5 156.25 L 252.5 145.207031 L 247.082031 145.207031 L 247.082031 139.792969 L 241.457031 139.792969 L 241.457031 134.375 L 235.832031 134.375 L 235.832031 129.375 L 230 129.167969 C 229.992188 127.632812 229.980469 126.097656 229.976562 124.5625 C 229.976562 124.039062 229.972656 123.515625 229.96875 122.992188 C 229.964844 122.242188 229.960938 121.492188 229.960938 120.742188 L 229.953125 120.03125 L 229.953125 119.375 L 229.949219 118.792969 L 230 118.332031 Z M 230.417969 117.917969 "/><path style=" stroke:none;fill-rule:nonzero;fill:#000000;fill-opacity:1;" d="M 213.125 145.417969 L 224.375 145.417969 L 224.375 150.832031 C 226.148438 150.824219 226.148438 150.824219 227.921875 150.816406 L 228.585938 150.8125 L 229.269531 150.808594 L 229.792969 150.832031 L 230 151.042969 C 230.019531 151.441406 230.023438 151.84375 230.019531 152.246094 L 230.019531 152.910156 L 230.011719 153.761719 L 230 156.457031 L 235.625 156.457031 L 235.625 167.5 L 238.332031 167.5 C 238.839844 167.527344 239.351562 167.558594 239.855469 167.605469 L 240.542969 167.664062 L 241.042969 167.707031 C 241.074219 171.855469 241.105469 176 241.132812 180.144531 C 241.148438 182.070312 241.160156 183.992188 241.175781 185.917969 C 241.191406 187.59375 241.203125 189.273438 241.214844 190.949219 C 241.21875 191.835938 241.226562 192.726562 241.234375 193.613281 C 241.242188 194.449219 241.246094 195.285156 241.25 196.121094 C 241.253906 196.429688 241.253906 196.734375 241.257812 197.042969 C 241.261719 197.460938 241.265625 197.878906 241.265625 198.296875 L 241.273438 199.007812 C 241.25 199.582031 241.25 199.582031 241.042969 200.207031 C 239.289062 200.644531 237.429688 200.289062 235.625 200.207031 L 235.625 211.25 L 230 211.25 C 230.023438 212.945312 230.023438 212.945312 230.054688 214.640625 L 230.0625 215.277344 L 230.070312 215.933594 L 230 216.457031 L 229.375 216.875 C 228.84375 216.902344 228.84375 216.902344 228.21875 216.871094 L 227.542969 216.835938 L 226.835938 216.796875 L 226.121094 216.761719 C 225.539062 216.730469 224.957031 216.699219 224.375 216.667969 L 224.378906 217.136719 C 224.382812 217.839844 224.386719 218.542969 224.386719 219.246094 L 224.394531 219.988281 L 224.394531 220.695312 L 224.398438 221.347656 C 224.375 221.875 224.375 221.875 224.167969 222.292969 C 222.628906 222.296875 221.089844 222.300781 219.550781 222.304688 C 219.027344 222.304688 218.5 222.304688 217.976562 222.308594 C 217.226562 222.308594 216.476562 222.3125 215.722656 222.3125 L 215.007812 222.316406 L 213.769531 222.316406 L 213.332031 222.292969 L 213.125 222.082031 C 213.105469 221.75 213.097656 221.417969 213.101562 221.085938 L 213.101562 220.441406 L 213.105469 219.738281 L 213.105469 219.023438 C 213.105469 218.269531 213.109375 217.511719 213.113281 216.757812 C 213.113281 216.246094 213.113281 215.734375 213.113281 215.226562 C 213.117188 213.96875 213.121094 212.714844 213.125 211.457031 L 218.75 211.457031 L 218.75 206.042969 L 224.167969 206.042969 L 224.160156 203.679688 C 224.15625 202.925781 224.15625 202.175781 224.15625 201.425781 C 224.152344 200.902344 224.152344 200.375 224.152344 199.851562 C 224.148438 199.101562 224.148438 198.351562 224.144531 197.597656 L 224.144531 196.226562 L 224.140625 195.644531 L 224.167969 195.207031 L 224.375 195 L 230 195 L 230 172.917969 L 224.167969 172.707031 L 224.167969 161.875 L 218.957031 161.875 L 218.75 161.667969 C 218.734375 161.265625 218.726562 160.863281 218.730469 160.460938 L 218.730469 159.796875 L 218.738281 158.945312 L 218.75 156.25 L 213.125 156.25 Z M 213.125 145.417969 "/></g></svg>