<svg xmlns="http://www.w3.org/2000/svg" xmlns:xlink="http://www.w3.org/1999/xlink" width="500" zoomAndPan="magnify" viewBox="0 0 375 374.999991" height="500" preserveAspectRatio="xMidYMid meet" version="1.2"><defs><filter x="0%" y="0%" width="100%" filterUnits="objectBoundingBox" id="16523745f8" height="100%"><feColorMatrix values="0 0 0 0 1 0 0 0 0 1 0 0 0 0 1 0 0 0 1 0" type="matrix" in="SourceGraphic"/></filter><clipPath id="f38f0b2333"><path d="M 0.589844 0.410156 L 60.558594 0.410156 L 60.558594 49.222656 L 0.589844 49.222656 Z M 0.589844 0.410156 "/></clipPath><clipPath id="8d1f3dd703"><rect x="0" width="61" y="0" height="50"/></clipPath><clipPath id="fd8105368d"><path d="M 0.246094 0.371094 L 24.800781 0.371094 L 24.800781 20.375 L 0.246094 20.375 Z M 0.246094 0.371094 "/></clipPath><clipPath id="4c91426d51"><rect x="0" width="25" y="0" height="21"/></clipPath><clipPath id="2c6d56cae5"><rect x="0" width="375" y="0" height="375"/></clipPath></defs><g id="8324157b94"><g transform="matrix(1,0,0,1,0,0)"><g clip-path="url(#2c6d56cae5)"><path style=" stroke:none;fill-rule:nonzero;fill:#fefefe;fill-opacity:1;" d="M 40.550781 67.75 L 67.46875 67.746094 L 68 67.746094 C 86.808594 67.742188 105.617188 67.738281 124.421875 67.738281 L 125.675781 67.738281 L 167.175781 67.734375 C 177.40625 67.734375 187.636719 67.734375 197.867188 67.734375 L 198.535156 67.734375 L 209.179688 67.730469 C 219.398438 67.730469 229.617188 67.726562 239.832031 67.726562 L 260.472656 67.726562 C 267.019531 67.726562 273.566406 67.726562 280.109375 67.722656 C 287.792969 67.722656 295.472656 67.722656 303.152344 67.722656 C 305.980469 67.722656 308.8125 67.722656 311.640625 67.722656 C 314.417969 67.71875 317.199219 67.71875 319.976562 67.71875 C 321.464844 67.722656 322.953125 67.722656 324.441406 67.71875 C 325.792969 67.71875 327.144531 67.71875 328.496094 67.71875 C 328.984375 67.71875 329.472656 67.71875 329.960938 67.71875 C 330.617188 67.71875 331.277344 67.71875 331.933594 67.71875 L 332.515625 67.71875 C 333.261719 67.71875 333.867188 67.738281 334.578125 67.972656 C 334.886719 68.589844 334.851562 69.109375 334.875 69.800781 L 334.902344 70.648438 L 334.929688 71.542969 L 334.960938 72.410156 C 335.019531 74.246094 335.042969 76.074219 335.03125 77.910156 C 335.886719 78.175781 336.753906 78.199219 337.644531 78.242188 L 338.664062 78.292969 C 339.195312 78.320312 339.730469 78.347656 340.261719 78.375 C 340.777344 78.398438 341.292969 78.425781 341.808594 78.453125 L 342.285156 78.472656 C 343.308594 78.53125 344.222656 78.703125 345.191406 79.039062 C 345.644531 79.492188 345.644531 79.492188 345.78125 79.90625 C 345.875 80.417969 345.910156 80.90625 345.925781 81.425781 L 345.945312 82.035156 L 345.96875 82.679688 C 346.035156 84.355469 346.128906 86.023438 346.304688 87.691406 L 346.359375 88.214844 C 346.402344 88.621094 346.472656 89.023438 346.546875 89.425781 C 347.273438 89.789062 348.066406 89.699219 348.863281 89.707031 L 350.011719 89.730469 C 350.613281 89.742188 351.214844 89.753906 351.820312 89.761719 C 352.402344 89.769531 352.980469 89.78125 353.5625 89.792969 L 354.105469 89.800781 C 355.199219 89.824219 356.128906 89.953125 357.160156 90.332031 C 357.417969 90.847656 357.417969 91.140625 357.421875 91.714844 L 357.429688 92.296875 L 357.433594 92.925781 L 357.453125 94.242188 C 357.460938 94.933594 357.46875 95.625 357.476562 96.316406 C 357.484375 96.984375 357.492188 97.652344 357.503906 98.320312 L 357.507812 98.949219 L 357.519531 99.53125 L 357.523438 100.046875 C 357.582031 100.511719 357.582031 100.511719 357.90625 100.886719 L 358.289062 101.171875 C 358.921875 101.226562 359.5 101.242188 360.128906 101.230469 L 360.675781 101.222656 C 361.253906 101.21875 361.832031 101.210938 362.410156 101.199219 C 362.984375 101.191406 363.5625 101.183594 364.136719 101.179688 C 364.496094 101.175781 364.851562 101.167969 365.210938 101.164062 C 366.234375 101.148438 367.21875 101.175781 368.226562 101.394531 C 368.605469 101.683594 368.605469 101.683594 368.902344 102.074219 C 368.988281 102.535156 368.988281 102.535156 368.988281 103.078125 L 368.992188 103.707031 L 368.988281 104.402344 L 368.992188 105.140625 C 368.996094 105.964844 368.992188 106.789062 368.992188 107.613281 C 368.992188 108.207031 368.992188 108.800781 368.996094 109.390625 C 368.996094 110.6875 368.996094 111.980469 368.996094 113.277344 C 368.996094 115.203125 368.996094 117.125 369 119.050781 C 369.003906 122.488281 369.003906 125.925781 369.003906 129.363281 C 369 133.382812 369.003906 137.402344 369.003906 141.417969 C 369.007812 147.066406 369.007812 152.714844 369.007812 158.363281 L 369.003906 159.007812 L 369.003906 164.199219 C 369 170.949219 369.003906 177.699219 369.007812 184.453125 C 369.015625 192.839844 369.019531 201.226562 369.015625 209.609375 L 369.015625 210.214844 C 369.015625 213.21875 369.015625 216.226562 369.019531 219.234375 C 369.023438 222.652344 369.023438 226.070312 369.019531 229.488281 C 369.015625 231.402344 369.015625 233.316406 369.019531 235.230469 C 369.023438 236.65625 369.023438 238.082031 369.019531 239.507812 C 369.015625 240.089844 369.019531 240.667969 369.019531 241.25 C 369.023438 242.03125 369.019531 242.816406 369.015625 243.597656 L 369.023438 244.289062 L 369.015625 244.917969 L 369.015625 245.464844 L 368.902344 245.925781 C 368.488281 246.320312 368.488281 246.320312 368 246.601562 C 367.292969 246.699219 367.292969 246.699219 366.457031 246.710938 L 366.003906 246.722656 C 365.523438 246.730469 365.039062 246.738281 364.554688 246.746094 C 364.0625 246.753906 363.570312 246.765625 363.078125 246.777344 C 362.753906 246.785156 362.429688 246.789062 362.109375 246.796875 C 360.453125 246.832031 358.808594 246.925781 357.160156 247.054688 L 357.269531 247.941406 C 357.390625 249.011719 357.425781 250.070312 357.433594 251.148438 L 357.4375 251.710938 C 357.4375 252.101562 357.441406 252.492188 357.441406 252.882812 C 357.441406 253.480469 357.449219 254.078125 357.457031 254.679688 C 357.457031 255.058594 357.460938 255.4375 357.460938 255.820312 L 357.46875 256.363281 C 357.464844 256.863281 357.464844 256.863281 357.386719 257.667969 C 356.707031 258.121094 356.707031 258.121094 356.121094 258.1875 L 355.421875 258.207031 L 354.640625 258.230469 L 353.816406 258.246094 C 353.261719 258.265625 352.707031 258.28125 352.152344 258.296875 L 351.34375 258.320312 C 348.910156 258.328125 348.910156 258.328125 346.546875 258.796875 C 346.160156 259.566406 346.269531 260.449219 346.257812 261.296875 L 346.246094 261.910156 C 346.230469 262.5625 346.21875 263.214844 346.207031 263.863281 C 346.191406 264.722656 346.175781 265.578125 346.160156 266.433594 L 346.148438 267.03125 L 346.136719 267.589844 L 346.128906 268.078125 C 346.09375 268.507812 346.09375 268.507812 345.867188 269.1875 C 345.105469 269.570312 344.230469 269.472656 343.386719 269.492188 L 342.773438 269.507812 C 342.347656 269.519531 341.917969 269.527344 341.488281 269.539062 C 340.835938 269.550781 340.179688 269.570312 339.527344 269.589844 C 339.109375 269.597656 338.695312 269.609375 338.277344 269.617188 L 337.6875 269.632812 C 336.765625 269.652344 335.925781 269.648438 335.03125 269.410156 C 334.550781 270.019531 334.550781 270.019531 334.527344 270.554688 C 334.527344 270.730469 334.53125 270.910156 334.535156 271.09375 L 334.539062 271.703125 L 334.550781 272.363281 L 334.554688 273.039062 C 334.558594 273.753906 334.570312 274.46875 334.578125 275.183594 C 334.589844 276.125 334.597656 277.066406 334.605469 278.007812 L 334.617188 278.667969 L 334.621094 279.277344 L 334.628906 279.816406 L 334.578125 280.25 L 334.125 280.703125 C 333.457031 280.761719 332.808594 280.789062 332.140625 280.796875 L 331.5 280.808594 C 330.78125 280.824219 330.0625 280.835938 329.339844 280.84375 L 327.8125 280.871094 C 324.433594 280.925781 321.058594 280.933594 317.679688 280.933594 L 317.070312 280.933594 C 315.046875 280.933594 313.023438 280.929688 311.003906 280.921875 C 310.238281 280.921875 309.472656 280.917969 308.707031 280.917969 C 308.175781 280.914062 307.648438 280.914062 307.117188 280.910156 L 306.148438 280.90625 L 305.304688 280.902344 C 304.574219 280.929688 303.898438 280.984375 303.1875 281.15625 C 302.707031 282.121094 302.867188 283.386719 302.835938 284.449219 L 302.820312 284.90625 C 302.6875 289.296875 302.71875 293.6875 302.734375 298.082031 C 302.738281 299.640625 302.742188 301.199219 302.742188 302.757812 C 302.75 307.183594 302.761719 311.609375 302.773438 316.035156 C 302.78125 318.492188 302.789062 320.949219 302.789062 323.40625 C 302.792969 324.957031 302.796875 326.503906 302.804688 328.054688 C 302.808594 329.015625 302.808594 329.972656 302.808594 330.933594 C 302.808594 331.378906 302.8125 331.824219 302.8125 332.265625 C 302.816406 332.875 302.816406 333.480469 302.816406 334.085938 L 302.824219 334.617188 C 302.8125 335.777344 302.609375 336.585938 302.058594 337.613281 C 301.382812 338.0625 301.382812 338.0625 300.605469 338.15625 C 300.28125 338.171875 299.953125 338.1875 299.628906 338.203125 L 299.085938 338.226562 C 297.007812 338.316406 294.925781 338.324219 292.839844 338.320312 C 292.175781 338.316406 291.511719 338.320312 290.847656 338.320312 C 284.746094 338.324219 284.746094 338.324219 283.476562 337.886719 C 283.089844 337.613281 283.089844 337.613281 282.902344 337.210938 C 282.542969 335.285156 282.601562 333.355469 282.636719 331.402344 C 282.648438 330.707031 282.660156 330.011719 282.664062 329.320312 L 282.675781 328.839844 C 282.679688 328.449219 282.660156 328.0625 282.636719 327.675781 L 282.1875 327.222656 C 279.816406 326.792969 277.265625 326.984375 274.867188 327.007812 L 274.0625 327.011719 L 273.335938 327.019531 C 272.773438 327 272.320312 326.964844 271.796875 326.773438 C 271.53125 326.242188 271.546875 325.933594 271.554688 325.34375 L 271.558594 324.730469 L 271.566406 324.070312 L 271.574219 322.691406 C 271.578125 321.964844 271.585938 321.234375 271.59375 320.507812 C 271.601562 319.808594 271.605469 319.109375 271.609375 318.410156 L 271.617188 317.746094 L 271.621094 317.136719 L 271.625 316.59375 L 271.570312 316.15625 L 271.121094 315.707031 C 268.996094 315.347656 266.796875 315.410156 264.648438 315.371094 C 264.132812 315.363281 263.621094 315.351562 263.105469 315.339844 L 262.628906 315.335938 C 262.019531 315.320312 261.457031 315.265625 260.867188 315.109375 L 260.507812 314.804688 C 260.269531 313.914062 260.25 313.042969 260.25 312.125 L 260.25 311.375 L 260.253906 310.597656 L 260.25 309.835938 C 260.25 308.34375 260.328125 306.898438 260.523438 305.417969 L 260.507812 304.867188 C 260.238281 304.480469 260.238281 304.480469 259.828125 304.1875 C 259.367188 304.085938 259.367188 304.085938 258.851562 304.101562 L 258.253906 304.09375 L 257.613281 304.097656 L 256.953125 304.089844 C 256.253906 304.082031 255.558594 304.078125 254.859375 304.078125 C 253.945312 304.074219 253.027344 304.066406 252.109375 304.054688 L 251.46875 304.058594 L 250.871094 304.050781 L 250.347656 304.050781 C 249.894531 303.964844 249.894531 303.964844 249.503906 303.65625 C 249.214844 303.285156 249.214844 303.285156 249.0625 302.671875 C 248.753906 299.519531 249.050781 296.28125 249.214844 293.125 C 248.066406 292.894531 246.953125 292.851562 245.785156 292.835938 L 245.1875 292.820312 C 244.351562 292.804688 243.515625 292.789062 242.679688 292.773438 C 242.066406 292.761719 241.457031 292.75 240.84375 292.734375 L 240.273438 292.726562 L 239.738281 292.714844 L 239.269531 292.707031 C 238.800781 292.667969 238.375 292.574219 237.921875 292.445312 C 237.554688 291.078125 237.433594 289.742188 237.417969 288.328125 L 237.414062 287.824219 C 237.40625 287.132812 237.402344 286.441406 237.402344 285.75 C 237.402344 285.242188 237.398438 284.730469 237.390625 284.21875 L 237.398438 283.75 C 237.398438 283.246094 237.398438 283.246094 237.246094 282.507812 C 236.753906 281.914062 236.355469 281.5 235.664062 281.15625 C 235.304688 281.128906 234.941406 281.113281 234.574219 281.109375 L 233.875 281.097656 L 233.097656 281.085938 L 232.28125 281.070312 C 231.527344 281.058594 230.777344 281.046875 230.023438 281.035156 C 229.542969 281.03125 229.0625 281.023438 228.578125 281.015625 C 220.695312 280.898438 212.816406 280.890625 204.933594 280.890625 C 202.75 280.890625 200.570312 280.886719 198.390625 280.886719 C 194.367188 280.882812 190.34375 280.878906 186.324219 280.878906 C 180.585938 280.875 174.84375 280.867188 169.105469 280.863281 L 162.167969 280.855469 L 161.386719 280.855469 C 155.308594 280.851562 149.230469 280.84375 143.152344 280.839844 L 142.347656 280.839844 C 136.144531 280.835938 129.9375 280.828125 123.730469 280.824219 L 122.917969 280.824219 L 116.425781 280.820312 C 106.261719 280.8125 96.09375 280.800781 85.929688 280.792969 L 85.179688 280.792969 C 81.199219 280.789062 77.222656 280.785156 73.242188 280.785156 C 69.257812 280.785156 65.269531 280.78125 61.285156 280.777344 C 58.914062 280.773438 56.546875 280.769531 54.175781 280.773438 C 52.597656 280.773438 51.019531 280.769531 49.441406 280.765625 C 48.539062 280.765625 47.636719 280.765625 46.734375 280.765625 C 45.917969 280.765625 45.097656 280.765625 44.28125 280.761719 C 43.84375 280.761719 43.410156 280.761719 42.972656 280.765625 L 42.199219 280.761719 L 41.527344 280.761719 L 41.003906 280.703125 L 40.550781 280.25 C 40.5 279.691406 40.46875 279.132812 40.464844 278.574219 L 40.453125 278.0625 C 40.441406 277.523438 40.433594 276.980469 40.425781 276.441406 C 40.410156 275.734375 40.394531 275.03125 40.378906 274.324219 L 40.371094 273.808594 C 40.335938 272.414062 40.242188 271.027344 40.097656 269.636719 L 39.460938 269.640625 C 38.667969 269.644531 37.871094 269.648438 37.078125 269.648438 C 36.734375 269.652344 36.394531 269.652344 36.050781 269.65625 C 31.054688 269.683594 31.054688 269.683594 29.710938 269.410156 C 29.308594 269.148438 29.308594 269.148438 29.035156 268.734375 C 28.773438 267.707031 28.789062 266.710938 28.808594 265.65625 L 28.820312 264.667969 C 28.828125 264.152344 28.835938 263.636719 28.847656 263.121094 C 28.855469 262.621094 28.863281 262.121094 28.867188 261.621094 L 28.882812 260.71875 C 28.855469 259.925781 28.855469 259.925781 28.492188 259.269531 C 28.167969 258.777344 28.167969 258.777344 27.679688 258.570312 C 25.191406 258.296875 22.679688 258.28125 20.179688 258.230469 L 19.332031 258.207031 L 18.570312 258.1875 L 17.96875 258.121094 L 17.515625 257.667969 C 17.445312 257.179688 17.445312 257.179688 17.421875 256.5625 L 17.398438 255.875 L 17.375 255.128906 L 17.347656 254.371094 C 17.273438 251.929688 17.269531 249.492188 17.289062 247.054688 C 15.351562 246.90625 13.417969 246.820312 11.472656 246.828125 L 11.011719 246.832031 C 10.246094 246.835938 9.480469 246.84375 8.714844 246.855469 L 7.855469 246.863281 L 7.085938 246.875 C 6.449219 246.828125 6.449219 246.828125 5.773438 246.378906 C 5.6875 245.945312 5.6875 245.945312 5.6875 245.402344 L 5.683594 244.777344 L 5.6875 244.082031 L 5.6875 243.347656 C 5.683594 242.523438 5.6875 241.703125 5.6875 240.878906 L 5.6875 239.105469 C 5.683594 237.8125 5.683594 236.519531 5.6875 235.230469 C 5.691406 233.308594 5.6875 231.386719 5.6875 229.464844 C 5.683594 226.035156 5.6875 222.605469 5.6875 219.175781 C 5.691406 216.171875 5.691406 213.171875 5.691406 210.167969 L 5.691406 207.144531 C 5.691406 199.5625 5.691406 191.984375 5.699219 184.40625 C 5.703125 177.234375 5.703125 170.066406 5.703125 162.894531 L 5.703125 158.375 C 5.699219 151.742188 5.703125 145.109375 5.703125 138.480469 C 5.707031 135.679688 5.707031 132.878906 5.707031 130.078125 C 5.703125 126.464844 5.707031 122.855469 5.707031 119.246094 C 5.710938 117.335938 5.710938 115.425781 5.710938 113.515625 C 5.710938 112.089844 5.710938 110.664062 5.714844 109.242188 C 5.714844 108.664062 5.714844 108.085938 5.714844 107.507812 C 5.710938 106.726562 5.714844 105.941406 5.714844 105.160156 L 5.714844 104.472656 C 5.71875 103.359375 5.773438 102.433594 6.226562 101.394531 L 6.449219 101.171875 C 6.789062 101.152344 7.128906 101.144531 7.46875 101.148438 L 8.125 101.152344 L 8.835938 101.15625 L 9.5625 101.160156 C 10.59375 101.164062 11.625 101.167969 12.65625 101.175781 C 13.40625 101.179688 14.15625 101.183594 14.90625 101.183594 L 15.617188 101.191406 L 16.273438 101.191406 L 16.851562 101.195312 L 17.289062 101.171875 L 17.515625 100.945312 C 17.53125 100.242188 17.53125 99.542969 17.523438 98.839844 L 17.515625 97.527344 C 17.507812 96.835938 17.503906 96.148438 17.496094 95.457031 C 17.488281 94.789062 17.484375 94.125 17.480469 93.460938 L 17.472656 92.835938 C 17.46875 92.03125 17.492188 91.328125 17.6875 90.542969 L 17.96875 90.105469 C 18.875 89.804688 19.804688 89.832031 20.746094 89.816406 L 21.296875 89.804688 C 21.875 89.789062 22.457031 89.777344 23.035156 89.765625 C 23.796875 89.75 24.558594 89.734375 25.320312 89.71875 L 25.847656 89.707031 C 27.117188 89.679688 27.117188 89.679688 28.355469 89.425781 C 28.703125 88.730469 28.652344 87.988281 28.6875 87.226562 L 28.742188 86.144531 C 28.765625 85.578125 28.792969 85.015625 28.820312 84.449219 C 28.84375 83.902344 28.871094 83.355469 28.898438 82.808594 L 28.917969 82.304688 C 28.980469 81.128906 29.097656 79.933594 29.484375 78.8125 C 30.007812 78.554688 30.339844 78.546875 30.921875 78.519531 L 31.539062 78.492188 L 32.203125 78.46875 L 32.886719 78.4375 C 33.605469 78.40625 34.328125 78.378906 35.046875 78.347656 L 36.507812 78.285156 C 37.707031 78.234375 38.902344 78.183594 40.097656 78.136719 L 40.09375 77.492188 C 40.09375 76.691406 40.089844 75.890625 40.085938 75.089844 C 40.085938 74.746094 40.085938 74.398438 40.082031 74.054688 C 40.050781 68.746094 40.050781 68.746094 40.550781 67.75 "/><g mask="url(#5518c2de2c)" transform="matrix(1,0,0,1,268,84)"><g id="488f63ca06" clip-path="url(#8d1f3dd703)"><g clip-rule="nonzero" clip-path="url(#f38f0b2333)"><path style=" stroke:none;fill-rule:nonzero;fill:#b3b3b3;fill-opacity:1;" d="M 55.058594 11.3125 L 55.058594 5.863281 L 49.605469 5.863281 L 49.605469 0.410156 L 38.734375 0.410156 L 38.734375 5.863281 L 33.285156 5.863281 L 33.285156 11.3125 L 27.832031 11.3125 L 27.832031 5.863281 L 22.382812 5.863281 L 22.382812 0.410156 L 11.511719 0.410156 L 11.511719 5.863281 L 6.058594 5.863281 L 6.058594 11.3125 L 0.609375 11.3125 L 0.609375 27.636719 L 6.058594 27.636719 L 6.058594 33.085938 L 11.511719 33.085938 L 11.511719 38.539062 L 22.382812 38.539062 L 22.382812 43.988281 L 27.832031 43.988281 L 27.832031 49.410156 L 33.285156 49.410156 L 33.285156 43.988281 L 38.734375 43.988281 L 38.734375 38.539062 L 49.605469 38.539062 L 49.605469 33.085938 L 55.058594 33.085938 L 55.058594 27.636719 L 60.507812 27.636719 L 60.507812 11.3125 Z M 55.058594 11.3125 "/></g><path style=" stroke:none;fill-rule:nonzero;fill:#b3b3b3;fill-opacity:1;" d="M 55.058594 11.3125 L 55.058594 27.636719 L 49.605469 27.636719 L 49.605469 33.085938 L 38.734375 33.085938 L 38.734375 38.539062 L 33.285156 38.539062 L 33.285156 43.988281 L 27.832031 43.988281 L 27.832031 38.539062 L 22.382812 38.539062 L 22.382812 33.085938 L 11.511719 33.085938 L 11.511719 27.636719 L 6.058594 27.636719 L 6.058594 11.3125 L 11.511719 11.3125 L 11.511719 5.863281 L 22.382812 5.863281 L 22.382812 11.3125 L 27.832031 11.3125 L 27.832031 16.734375 L 33.285156 16.734375 L 33.285156 11.3125 L 38.734375 11.3125 L 38.734375 5.863281 L 49.605469 5.863281 L 49.605469 11.3125 Z M 55.058594 11.3125 "/><path style=" stroke:none;fill-rule:nonzero;fill:#b3b3b3;fill-opacity:1;" d="M 16.933594 11.3125 L 16.933594 16.734375 L 11.511719 16.734375 L 11.511719 22.183594 L 22.382812 22.183594 L 22.382812 11.3125 Z M 16.933594 11.3125 "/></g><mask id="5518c2de2c"><g filter="url(#16523745f8)"><rect x="0" width="375" height="375" y="0" style="fill:#000000;fill-opacity:0.32;stroke:none;"/></g></mask></g><g mask="url(#06426a38c4)" transform="matrix(1,0,0,1,316,123)"><g id="70ba16e980" clip-path="url(#4c91426d51)"><g clip-rule="nonzero" clip-path="url(#fd8105368d)"><path style=" stroke:none;fill-rule:nonzero;fill:#b3b3b3;fill-opacity:1;" d="M 22.558594 4.835938 L 22.558594 2.605469 L 20.328125 2.605469 L 20.328125 0.371094 L 15.875 0.371094 L 15.875 2.605469 L 13.640625 2.605469 L 13.640625 4.835938 L 11.410156 4.835938 L 11.410156 2.605469 L 9.175781 2.605469 L 9.175781 0.371094 L 4.722656 0.371094 L 4.722656 2.605469 L 2.492188 2.605469 L 2.492188 4.835938 L 0.257812 4.835938 L 0.257812 11.519531 L 2.492188 11.519531 L 2.492188 13.753906 L 4.722656 13.753906 L 4.722656 15.984375 L 9.175781 15.984375 L 9.175781 18.21875 L 11.410156 18.21875 L 11.410156 20.4375 L 13.640625 20.4375 L 13.640625 18.21875 L 15.875 18.21875 L 15.875 15.984375 L 20.328125 15.984375 L 20.328125 13.753906 L 22.558594 13.753906 L 22.558594 11.519531 L 24.792969 11.519531 L 24.792969 4.835938 Z M 22.558594 4.835938 "/></g><path style=" stroke:none;fill-rule:nonzero;fill:#b3b3b3;fill-opacity:1;" d="M 22.558594 4.835938 L 22.558594 11.519531 L 20.328125 11.519531 L 20.328125 13.753906 L 15.875 13.753906 L 15.875 15.984375 L 13.640625 15.984375 L 13.640625 18.21875 L 11.410156 18.21875 L 11.410156 15.984375 L 9.175781 15.984375 L 9.175781 13.753906 L 4.722656 13.753906 L 4.722656 11.519531 L 2.492188 11.519531 L 2.492188 4.835938 L 4.722656 4.835938 L 4.722656 2.605469 L 9.175781 2.605469 L 9.175781 4.835938 L 11.410156 4.835938 L 11.410156 7.058594 L 13.640625 7.058594 L 13.640625 4.835938 L 15.875 4.835938 L 15.875 2.605469 L 20.328125 2.605469 L 20.328125 4.835938 Z M 22.558594 4.835938 "/><path style=" stroke:none;fill-rule:nonzero;fill:#b3b3b3;fill-opacity:1;" d="M 6.945312 4.835938 L 6.945312 7.058594 L 4.722656 7.058594 L 4.722656 9.289062 L 9.175781 9.289062 L 9.175781 4.835938 Z M 6.945312 4.835938 "/></g><mask id="06426a38c4"><g filter="url(#16523745f8)"><rect x="0" width="375" height="375" y="0" style="fill:#000000;fill-opacity:0.32;stroke:none;"/></g></mask></g></g></g></g></svg>